<mxfile host="Electron" modified="2023-12-07T21:33:13.847Z" agent="Mozilla/5.0 (Windows NT 10.0; Win64; x64) AppleWebKit/537.36 (KHTML, like Gecko) draw.io/22.1.2 Chrome/114.0.5735.289 Electron/25.9.4 Safari/537.36" etag="kEDK7Qs3_DQktrZf5J38" version="22.1.2" type="device">
  <diagram name="Page-1" id="wLRi5SWhpTUb02jTeV0G">
    <mxGraphModel dx="1418" dy="820" grid="1" gridSize="10" guides="1" tooltips="1" connect="1" arrows="1" fold="1" page="1" pageScale="1" pageWidth="850" pageHeight="1100" math="0" shadow="0">
      <root>
        <mxCell id="0" />
        <mxCell id="1" parent="0" />
        <mxCell id="DMdp0HXCAiK9r9YgIuFt-1" value="" style="shape=image;verticalLabelPosition=bottom;labelBackgroundColor=default;verticalAlign=top;aspect=fixed;imageAspect=0;image=data:image/png,iVBORw0KGgoAAAANSUhEUgAAAlgAAAGQCAYAAAByNR6YAAAAOXRFWHRTb2Z0d2FyZQBNYXRwbG90bGliIHZlcnNpb24zLjUuMSwgaHR0cHM6Ly9tYXRwbG90bGliLm9yZy/YYfK9AAAACXBIWXMAAA9hAAAPYQGoP6dpAAB2qElEQVR4nO3dd3hU1dbH8e8kmRQCgdBCCwGREkBaeEE6gkRFFFEUASkKKqLSrldB9FL0qohXAyog3YZgBxSFqHRQpFkAQXpL6CSBtEly3j8Ok2TIBCGZYVJ+n+c5z8zsOXNmzSJMVvbZZ2+LYRgGIiIiIuIyXp4OQERERKSoUYElIiIi4mIqsERERERcTAWWiIiIiIupwBIRERFxMRVYIiIiIi6mAktERETExVRgiYiIiLiYCiwRERERF1OBJSIiIuJiKrBEREREXEwFloiIiIiLqcASERERcTEfTwfgThkZGRw/fpxSpUphsVg8HY6IiIgUEoZhkJCQQJUqVfDyuvb+qCJdYB0/fpzQ0FBPhyEiIiKF1JEjR6hWrdo1v65IF1ilSpUCzOQEBQW5/Pg2m40VK1YQGRmJ1Wp1+fGLM+XWvZRf91Fu3Uv5dR/l1lF8fDyhoaGZtcS1KtIFlv20YFBQkNsKrBIlShAUFKQfRhdTbt1L+XUf5da9lF/3UW6dy+sQIw1yFxEREXExFVgiIiIiLqYCS0RERMTFivQYLBERMWVkZJCamurpMPLNZrPh4+NDcnIy6enpng6nSCluubVarXh7e7vt+CqwRESKuNTUVA4cOEBGRoanQ8k3wzCoVKkSR44c0fyGLlYcc1umTBkqVarkls+rAktEpAgzDIOYmBi8vb0JDQ3N04SJBUlGRgYXLlygZMmShf6zFDTFKbeGYZCYmMjJkycBqFy5ssvfQwWWiEgRlpaWRmJiIlWqVKFEiRKeDiff7Kc6/f39i3wRcL0Vt9wGBAQAcPLkSSpWrOjy04VFP4MiIsWYfSyNr6+vhyMRKXjsf3TYbDaXH1sFlohIMVBcxtSIXAt3/r9QgSUiIuIhNWrUoEaNGp4OQ9xABZaIiBR4//3vf7FYLHh7e/P333+75JiFtbj57LPPuP3226lYsSJWq5Vy5cpRv359HnroId5//32HfVetWoXFYmH8+PEue3+LxULHjh1ddryiSoPcRUSkQDMMgzlz5mCxWDAMgw8++ICIiAhPh+URjz32GLNmzSIgIIA777yTmjVrcvHiRfbt28dXX33FqlWrGDBggKfDFFRg5c/BgzR5+23o2BFKl/Z0NCIiRdKKFSs4cOAAjz76KIsXL2bhwoVMnjwZf39/T4d2Xa1bt45Zs2ZRrVo1Nm7cSLVq1Ryev3jxIqtWrfJMcJKDThHmVUYGPnfdRdiPP+I1ebKnoxERKbJmzZoFwODBg+nTpw+nT5/m66+/znX/o0ePMmzYMGrXro2/vz9ly5alRYsWvPTSS0DWabNDhw5x6NAhLBZL5jZw4EAADh486PD4ch07dswxQDo1NZV33nmHrl27EhYWhp+fH8HBwXTu3Jlvv/0233lYv349APfdd1+O4gogMDCQO++8M/PxwIEDueWWWwCYMGGCw+e0F2JxcXFMnjyZTp06Ub16dSpWrEhISAh33303GzZscDj+/PnzMz/z6tWrHY53+SnIX375hZ49e1KpUiV8fX0JDQ3l8ccf5/jx4zni3rt3L4MHD6ZWrVr4+/sTHBxMeHg4jz/+OGfOnMlzvjxNPVh55eVF+n/+g0/fvnhNmwZjxkBgoKejEhEpUk6cOMGSJUsIDw+nRYsW+Pn5ERUVxezZs3nwwQdz7L9582Zuu+02zp49S4cOHbj33nu5ePEiO3fuZPz48bz44ovUqFGDcePGERUVBcCIESMyX9+kSZM8x3r27FmGDx9O69at6dKlCxUqVCAmJobFixfTrVs33nvvPR577LE8H79ChQoA7Nmz56r2v+eeewB4//336dChg8O4KfvYs127djF27Fjat29P165dKVGiBLGxsSxZsoRly5axZMkSunbtCpi5GTduHBMmTCAsLMyh+Mx+7Hnz5vHoo4/i7+/P3XffTbVq1fj777+ZPXs2S5cu5eeff6Z69eoAHD9+nBYtWpCQkEDXrl3p2bMnycnJHDhwgI8++oinn36acuXK5S1hnmYUYXFxcQZgxMXFueX4qUlJxoWQEMMAw5g/3y3vUVylpqYaX3/9tZGamurpUIok5dd9Clpuk5KSjJ07dxpJSUmeDiVPXn31VQMwXnvtNcMwDCM9Pd1o1KiRYbFYjH379jnsm5KSYtSoUcMAjAULFuQ41uHDhx0eh4WFGWFhYU7f98CBAwZgDBgwwOnzHTp0MC7/FZqcnGwcOXIkx75nz541wsPDjeDgYCMxMfGqY7jcsWPHjDJlyhiA0a1bN+ODDz4wdu3aZaSnp+f6mpUrVxqAMW7cOKfPnz9/3jh16pRhGGZuz507Z6SnpxsHDx40QkJCjLp16+Z4DWB06NDB6fF2795tWK1Wo3bt2sbx48cdnvvxxx8NLy8vo3v37pltU6ZMMQDjrbfeynGsCxcu5MiXq13p/0d+awidIswPb28Od+5s3r/syg0REckfwzCYPXs23t7e9OvXL7O9b9++mc9lt3TpUg4ePMjdd99N7969cxwvNDTUrfH6+fk5PXUXHBzMoEGDOHfuHL/++muej1+lShW+/vprbrzxRr755hv69+9PeHg4ZcqUoWvXrixcuPCa15ssXbo05cuXz9EeFhbG/fffz+7duzl8+PBVH2/69OnYbDaioqJyLD/TqVMn7r77bpYuXUp8fDyQNQ+Vs1UGAgMDM2dbL4x0ijCfjnboQPiCBbB6NZw9C2XLejokERGnHn0U/vzTszE0bAiXhlT9o59++ol9+/Zx++23U6VKlcz2nj178uKLLzJv3jwmTpyIj4/5q+znn38G4I477nB53Fdrx44dTJ48mTVr1hATE0NycrLD88eOHcvX8Tt06MDu3btZv349q1evZtu2baxfv57vvvuO7777jvnz57NkyZJrmrl//fr1TJkyhY0bN3Ly5ElSU1NzxGw/pfdPNm7cCJjj3DZt2pTj+ZMnT5KRkcHff/9NREQEd999N88//zxPPvkk0dHRdOnShTZt2lC/fv1CPzmuCqx8iIuDs6WrYDRogGXHDvj+e+jTx9NhiYg49eefcKkGKRRmzpwJkGOgedmyZenWrRtffvklS5cupUePHgCcP38egKpVq17PMDP9/PPPdOrUibS0NDp37szdd99NUFAQXl5ebN++ncWLF5OSkpLv9/Hy8qJdu3a0a9cOMHv6oqOjGTBgAMuXL2f69OkMHz78qo711Vdf0bNnT/z9/bn11lsJDQ0lODgYb29vVq1axerVq68pZvug9Mn/cPHXhQsXALOnbNOmTYwfP57vv/+ezz//HDB7G5999lmeeuqpq37vgkYFVh5t2AB9+vhQr14DenbtindcHFz2l4qIiOTNqVOnMq8UfPDBB50OaAezCLMXWGXKlAHy30sEZC52nJaW5vR5ezGX3csvv0xSUhIrV67MMRHnq6++yuLFi/MdlzMWi4XIyEhefvllBg8ezI8//njVBdaLL76Ir68vmzdvpm7dusTHx2cWhY8//jirV6++plhKX5qyKC4ujqCgoKt6TXh4OIsWLSItLY3ffvuNH374gbfffpunn36awMBAHn744WuKoaBQgZVHyclw6JCFQ4dqsvzRF+k6aRIU8u5MEZGC4v333yc1NZWIiAiHK/sMw8Bms2G1WlmyZAkrVqzg0KFDhIWFcfPNNwOwfPlyhgwZ8o/v4e3tneN0mF1wcDAAR44cyfFcfHy80yv59u7dS9myZZ3Ocn6thUpelCpVCjBzZOft7Q1kLfp9ub1799KgQQPCw8Mdxm9lZGSwbt06p6/x8vLK9Xg333wzW7ZsYe3atQ5TRlwNHx8fIiIiiIiIoHXr1rRv356vvvqq0BZYGuSeR506wdNPmz9g414LxEDFlYiIq9gHsE+bNo3Zs2dnbrNmzWLq1KnMmjWLwYMHk5GRwZw5cwC46667qFGjBl9//TWffvppjmNe3rNVrlw5Tp06lWOcFJjFSnh4OOvXr2fnzp2Z7enp6YwaNYqkpKQcr6lRowZnz57l999/d2ifM2cOy5cvv/YkXOb777/nyy+/xGaz5XjuwoULmdNOtG/fPrPdPsWBs0LRHvPff//tkBvDMJgwYYLD586uXLlyuR7vqaeewmq1MnLkSKdFaGpqKmvXrs18vGnTJk6cOJFjP3tbYZ5MVj1Y+TB6dAbvvWewebMPGzZAm1YZ5kB3J1dkiIh4WsOGno7g6mJYtWoVu3fv5qabbqJFixa57jd48GAmTZrE3LlzGTduHL6+vnz22WdERkbSq1cvZsyYQYsWLUhKSmLXrl389NNPDqf8OnfuzK+//sodd9xBu3bt8PX1pXHjxtx1110APPfccwwcOJA2bdpw//334+/vz8qVK7HZbDRu3JjffvvNIZ4RI0awfPly2rZtywMPPEDp0qXZvHkz69ato2fPnpnji/Lqr7/+YuTIkQQHB9OuXTtq166Nj48PR48e5dtvv+X8+fO0bNnSYdxS3bp1qVq1KgsXLsRqtVK9enUsFgv9+vUjLCyMkSNHMmTIEJo1a8a9996LYRhs3ryZnTt3ctddd7F06dIccXTu3JmFCxfSvXt3mjZtio+PD+3bt6d9+/bUq1ePuXPn8sgjj9CgQQNuv/126tSpg81m4/Dhw6xdu5YKFSrw119/AbBgwQLeffddOnTowI033khwcDD79u1j6dKl+Pn5XfWpzgIpz5NHXObdd981atSoYfj5+RnNmjUz1qxZk+u+x48fN3r37m3UqVPHsFgsxvDhw6947E8++cQAHObOuBpunwcrNdXo3PmgAYYRFfmtYQQHG0bnzm55r+KmoM0lVNQov+5T0HJbGOfB6tOnjwEYU6ZMyfFc9rmaDMMwbrnlFgMwlixZkrnPoUOHjCeeeMKoUaOGYbVajbJlyxotWrQwXn75ZYdjXbhwwRgyZIhRtWpVw9vb2+m8V3PnzjXq169v+Pr6GiEhIcZjjz1mnD592uk8WIZhGEuXLjVatmxplCxZ0ihdurTRpUsXY/Xq1ca8efMMwJg3b57D/tcyD9apU6eMOXPmGA8++KARHh5ulClTxvDx8THKly9vdOzY0Xj33XeNlJSUHK/btGmT0alTJyMoKMiwWCwGYKxcuTLz+Xnz5hmNGzc2SpQoYZQtW9bo3r278fvvvxvjxo3Lsa9hGMaJEyeM3r17GxUrVjS8vLyczrP1+++/GwMGDDCqV69u+Pr6GsHBwUaDBg2Mxx57zPjxxx8z9/v555+NIUOGGI0aNTKCg4MNf39/o1atWsbAgQONP/7446rykh/unAfLJQXWwoULDavVasyaNcvYuXOnMXz4cCMwMNA4dOiQ0/0PHDhgDBs2zHj//feNJk2aXLHAOnjwoFG1alWjXbt2BbLA+u9/1xpgGC1L/mlOOBoQYBhOfsDl2hS0X1JFjfLrPgUtt4WxwLqSywsscZ3imNsCP9Hom2++yaBBgxg8eDDh4eFERUURGhrK9OnTne5fo0YNpkyZQv/+/TOvOHAmPT2dvn37MmHCBG644QZXhOpy9eqdoUIFg18u1Ce1dHlISoLNmz0dloiIiHhQvgus1NRUtmzZQmRkpEN7ZGRkjoUir9XEiROpUKECgwYNytdx3Mk3LYWuXQ3Awq4KlwYWXoerRURERKTgyvcg99OnT5Oenk5ISIhDe0hICLGxsXk+7vr165kzZw7bt2+/6tekpKQ4TIhmn4rfZrM5veoiXwyDjDlz6DJmDJYX6/E+jVh8rj2N+ZKMtWtJf+YZ175fMWP/93L5v5sAyq87FbTc2mw2DMMgIyPjmpdRKYiMS1MQ2D+TuE5xzG1GRkbm1B/2KS3s8vt/2GVXEV4+pb1hGHme5j4hIYGHHnqIWbNmOV0jKTevvvoqEyZMyNG+YsUKp+sc5UtGBq3ee4+KcXE0WjQEH5+1LD3Tmv8AtnXr+P7bbzUvlgtER0d7OoQiTfl1n4KSWx8fHypVqsSFCxdynfOpMEpISPB0CEVWccptamoqSUlJrFmzJseksomJifk6dr4LrPLly+Pt7Z2jt+rkyZM5erWu1r59+zh48GDmpbJAZjXt4+PD7t27qVWrVo7XjRkzhlGjRmU+jo+PJzQ0lMjIyKueUfZapFWvDs2bE/rrRvq23suCDY1J8/HDLyGBrnXrwo03uvw9iwubzZa5LpXVavV0OEWO8us+BS23ycnJHDlyhJIlSxbqOYXsDMMgISGBUqVKFfq16gqa4pjb5ORkAgICaN++fY7/H/azYHmV7wLL19eXiIgIoqOjM5crAPOvt+7du+fpmPXq1eOPP/5waHvhhRdISEhgypQpua6I7ufnh5+fX452q9Xqni+6Ro040awZIVu3Msj/E95nPMvDHufOB0thLVUKCsCXa2Hntn87AZRfdyoouU1PT8diseDl5ZW5/EthZv9j2/6ZxHWKY269vLywWCxO/7/m9/+vS04Rjho1in79+tG8eXNatWrFzJkzOXz4cOZSBWPGjOHYsWN88MEHma+xj626cOECp06dYvv27fj6+lK/fn38/f1peNlsdPY1pi5v97Sj7dsTsnUrzf9eAIxjwPkpnJwIxeRnU0RERJxwSYHVq1cvzpw5w8SJE4mJiaFhw4YsW7aMsLAwAGJiYjh8+LDDa5o2bZp5f8uWLSxYsICwsDAOHjzoipCum9iWLTECAgg48jdt/bew7kxz/vwTGjXydGQiIiLiKS4b5D506FCGDh3q9Ln58+fnaDOyLUZ5NZwdoyBICwjAuOsuLJ9+yvBKC1l3sDk/f3OaRkd+MRcsDAjwdIgiIiJynWktQhfIGDAAr2rVSEq8F2ZAz5caQXIMrFsHbdp4OjwRERG5zjRSyAWMLl3gf/8jrHdrAH4xWppP/PyzB6MSERFnLBYLHTt29HQYRV7Hjh2LzdWIzqjAcqHmzcHHB1anqMASEckri8WS6+bt7U1wcDDe3t6ZbQV1CIkz8+fPd/q5SpUqRbNmzXjllVfyPf+SFAw6RegqycmUWL+WMdViWXvwUoG1aZNnYxIRKYTGjRuXoy0qKoq4uDiGDRtGQEAAfn5+mb0jTZo0uc4R5l/jxo255557AHN6hNjYWJYuXcrYsWP5/vvvWblyZY6ZxaVwUYHlKlu3QmQkz/mVZQr7yMCC1+HDEBsLlSp5OjoRkUJj/PjxOdrmz59PXFwcw4cPp2zZsgQFBRXquZqaNGmS43OeP3+em266ibVr17J27VqdxizkCu9PZ0HTogUEBhKYcpZqHONAQH2z/ddfPRuXiEgRVqNGDWrUqOH0ufHjx2OxWFi1apXT548fP06/fv2oWLEiAQEBREREsGDBglzfa/ny5XTt2pXy5cvj5+dHrVq1+Pe//8358+fz/0Ew53ts0aIFAKdOncrx/J49e+jXrx9VqlTB19eXKlWq0K9fP/bs2ZNj34EDB2KxWJxOfbRq1SosFkuOAq9Tp04EBweTlpbGK6+8Qu3atfHz8yM0NJR///vfDmv9Zrdw4UIiIiIICAigYsWK9OvXj+PHjzvdNzU1lXfeeYeuXbsSFhaGn58fwcHBdO7cmW+//dbpa+z/xvYCOywsDKvVyvjx4xk9ejQWi8Vhns3stmzZgsVicVgZ5npRgeUqPj5w880AtGMta5PN/yQ6TSgiUvCcO3eONm3a8Mcff/Dwww/Tv39/9u/fT9++fZk8eXKO/SdOnMjtt9/Opk2buPPOOxk2bBg33ngjb7zxBm3atCEuLi7fMcXFxfHrr7/i7e1Ns2bNHJ775ZdfaN68OR9//DEtW7bkmWeeoWXLlnz88cc0b96cX375Jd/vb9e3b1/efvtt2rVrxxNPPEFAQABvvPEGjz32WI5933rrLXr37s3+/fvp378/Dz/8MH/88QetW7fm3LlzOfY/e/Ysw4cPJyEhgS5dujBq1Ci6d+/O1q1b6datGzNnznQaU0pKCp06dWLp0qXcdtttPP3009SoUYMhQ4bg5eXFe++95/R1M2bMAODxxx/PR0byyCjC4uLiDMCIi4tzy/FTU1ONr7/+2khNTTUbxo83DDA+9+9jtGO1sef5eYaxb59b3ruoy5FbcSnl130KWm6TkpKMnTt3GklJSZ4OJV/CwsIMwNi3b59x7tw5Iz09PbM9LCzM6WvGjRtnAMbKlSsd2gEDMO6///7M4xiGYezfv98IDg42rFarsS/bd/dPP/1kAEabNm2M8+fPOxxr3rx5BmAMHz78qj6Hff/GjRsb48aNM8aNG2e8+OKLxmOPPWZUqVLFKFmypDF9+nSH16Snpxt169Y1AGPhwoUOzy1YsMAAjDp16jh8lgEDBhiAceDAgRwxrFy50gCMcePGObR36NDBAIxmzZoZZ86cyWy/cOGCUatWLcPLy8s4fvx4ZvuBAwcMX19fIzg42OF90tPTjXvvvTczz9klJycbR44cyRHT2bNnjfDwcCM4ONhITEx0eM7+b9+5c2fjwoULOV575513GoDxxx9/OLTHx8cbgYGBRmhoqJGWlpbjdYZx5f8f+a0h1IPlSm3bAtDOso61tGdx8EC44QbPxiQiIjl4e3szadIkh3FcNWvWZNiwYdhsNj788MPM9qlTpwIwc+ZMSpcu7XCcgQMH0qRJkyueWnTmt99+Y8KECUyYMIGXXnqJmTNncvz4cbp160b79u0d9t2wYQO7d++mTZs29OrVy+G53r1707p1a/bs2cO6deuuKYbcvPbaa5QtWzbzcWBgIH379iUjI4MtW7Zktn/88cekpqZm9ibZeXl5MXnyZKdj5Pz8/KhWrVqO9uDgYAYNGsS5c+f4NZehNW+88QaBgYE52u2TnF/e+/XRRx9x8eJFHn30UY9cMKBB7q50883g7U3FpMOEcpiNG6t7OiIREedatXLt8R58EIYPd+0x3ah69erUrFkzR3vHjh2ZMGEC27Zty2zbuHEjVquVTz/91OmxUlNTOXXqFGfOnKFcuXJX9f4DBgxwmF7ixIkT/PDDDwwfPpxvv/2WVatWZZ4mtMdyyy23OD3WrbfeyoYNG9i6dWuO4iwvmjdvnqMtNDQUwOG039atWwHo0KFDjv1vuOEGQkNDOXToUI7nduzYweTJk1mzZg0xMTEkJyc7PH/s2LEcr/Hz86Nx48ZO47399tupWbMmH374IZMmTSLg0goq7733Hj4+PgwaNCi3j+pWKrBcKTAQmjWDX3+lLes4sa4RvL3SbNOM7iJSkLh6nj5XF2xuFhIS4rS90qWrvrOPqTpz5gxpaWlMmDDhise8cOHCVRdYzuLp27cvSUlJPProo4wZM4bly5c7xFIplyvSK1eunCPm/Li8lw7Ax8csF9LT0zPb7O93pVxeXmD9/PPPdOrUibS0NDp37szdd9+deUXo9u3bWbx4sdPB9CEhIblOWurl5cXjjz/O6NGj+fTTTxkwYAC//PILv/32Gz169KBKlSpX98FdTKcIXS0qisSff+dTy4N0OzkHhg2DXP7qERGR/PHy8iItLc3pc1e6uu/EiRNO22NjYwHHIqN06dIEBwdjGMYVt7CwsLx/kEtatjTnUdyU7QIpeyz22C4XExOTI2b76TlnuXHVVY/29/unXGb38ssvk5SUxIoVK/juu++Iiopi4sSJjB8/PvOzO/NPM8IPGjQIPz+/zMHu9luPDG6/RAWWq7VuTYmWN9GwkRebuHQloQuv7hARkSzBwcGcOHECm82W47nNmzfn+rrDhw/nOoUBQNOmTTPbbr75Zs6dO8eOHTvyHe8/sZ+Cy8jIyGyzx5LbdBP29uxXHgYHBwNw5MiRHPtfKS/Xwv5+q1evzvHc/v37nb733r17KVu2rNM5vpwd52qVL1+e+++/n40bN7Ju3ToWLVpEzZo1iYyMzPMx80sFlpu0bElWgbVtG6SmejYgEZEiqGXLlqSlpTFv3jyH9vnz57N+/fpcX5eens5zzz3nUMgcOHCAqVOn4uPjw0MPPZTZPnLkSAAeffRRp/M7Xbx4kZ9dcMo1PT2dKVOmADgUIG3atKFu3bqsW7eOzz//3OE1n3/+OWvWrKFOnTq0vXShFWT1hM2aNcth/z/++CPzPfKrb9++WK1W3n77bYdiNSMjg3//+98OubWrUaMGZ8+e5ffff3donzNnTuYp0byyD3Z/4IEHSExM5LHHHvPoWogag+UOn37Kv//4hp0MJs6nLKVTz8Lvv5uLFYqIFASX5u1zGRecHsuLYcOGMW/ePJ544gl+/PFHQkND+e2339iwYQPdunXjm2++cfq6Ro0asWnTJiIiIoiMjCQuLo5FixZx/vx5Xn/9dWrVqpW5b+fOnXnttdcYM2YMtWvXpmvXrtSsWZMLFy5w6NAhVq9eTdu2bfn++++vOu7t27c7TPR58uRJfvrpJ3bv3k358uV5/fXXM5+zWCy8//77dOnShV69etG9e3fq1avH7t27+frrrylVqhQffPCBw1V73bt3p27dunzyySccPXqUli1bcvjwYRYvXkz37t1zHbB/LWrUqMFrr73Gv/71L5o2bUqvXr0oXbo0y5cv5/z58zRq1ChHITVixAiWL19O27ZteeCBByhdujSbN29m3bp19OzZM0cBeS1atWpFkyZN2L59O1arlYcffji/HzF/8jS5QyFx3efBsuvf3zDAmMCLxnKv2w0DDOPdd90SQ1FV0OYSKmqUX/cpaLkt6vNgGYZhrF+/3mjfvr0REBBglCpVyujatavx22+/XXEerA4dOhjHjh0z+vbta1SoUMHw8/MzmjZtanz88ce5xrB27Vrj/vvvNypXrmxYrVajfPnyRuPGjY2RI0cav/7661V9Dvs8WJdv/v7+Rr169Yzhw4cbx44dc/rav/76y3jooYeMSpUqGT4+PkalSpWMvn37Gn/99ZfT/Y8ePWr06tXLCA4ONvz9/Y3mzZsbX3zxxT/Og5U9t5fHPW/evBzPLViwwGjatKnh5+dnlC9f3ujbt69x7NixzONdbunSpUbLli2NkiVLGqVLlza6dOlirF69Otf3uNJcZ5ebMmWKARgPPPDAVe3vznmwLIZhGNe/rLs+4uPjKV26NHFxcQQFBbn8+DabjWXLltG1a1esVmvWE++9B0OGsMq7M6vT2zCOidC/P7z/vstjKKpyza24hPLrPgUtt8nJyRw4cICaNWvi7+/v6XDyLSMjg/j4+EK/FmFBVBRy279/fz788EN+/PFHOnXq9I/7X+n/R35riMKZwYKudWsAWvALm4kw21w0qFBERERyOnToEIsWLaJ+/fpXVVy5m8ZguUP9+lCqFCUSEjhDOV67YzWjP4vwdFQiIiJFzocffsju3btZtGgRqampvPzyy54OCVAPlnt4e2cOIG3EH3x4qL05CamIiIi41Jw5c3jllVdITU1l6tSp9OjRw9MhAerBcp9WrSA6mtZsYOauIcTHgxuGgYmIiBRruc0P5mnqwXKX1q3BYqFKwHnqGruIGzgcxozxdFQiIiJyHajAcpeOHeH8eeZ0X0J5ThP61VT44ANPRyUiIiLXgQosd/Hzg6AgWraErTQj3eINx4+Dk1XCRUTcrQjPyCOSZ+78f6ECy81atoRESrDLu6HZkG0BTxERd/P29gYgVct1ieSQmJgI4JY56zTI3Z02b6blv0awwlKCDWktaMhvZoFVQK5wEJGiz8fHhxIlSnDq1CmsVmuhnUDSLiMjg9TUVJKTkwv9ZyloilNuDcMgMTGRkydPUqZMmcw/RFxJBZY7lSyJ18b1tLP48zn3mm3qwRKR68hisVC5cmUOHDjAoUOHPB1OvhmGQVJSEgEBAR5dyLcoKo65LVOmDJUqVXLLsVVguVOdOlC2LP5nzxLPpTkafv0V0tPNubJERK4DX19fateuXSROE9psNtasWUP79u0LxFJERUlxy63VanVLz5WdCix38vIy58P69ltCOEGiVyAlSpeGEyegShVPRycixYiXl1eRWIvQ29ubtLQ0/P39i0URcD0pt65VtE+yFgStWpk3/Ew9n32k7j2s4kpERKSIU4HlbpcWfm7jtZEjqSH8/kfxOK8tIiJSnKnAcrf/+z/w8qJaxhGqcYSffwYyMkBz0oiIiBRZKrDcrWRJ6NKF3fW6U4KLNH/9fihfHg4e9HRkIiIi4iYa5H49fP89sathT0fwiT0GtnOwZg3UrOnpyERERMQN1IN1nbRsCb6+8IOtvdmwZo1nAxIRERG3UYF1nfj7GXRvfJANmFcVqsASEREpulRgXS/Nm/PprzVJwY8MLLB3r7n4s4iIiBQ5Liuwpk2bRs2aNfH39yciIoK1a9fmum9MTAx9+vShbt26eHl5MWLEiBz7zJo1i3bt2hEcHExwcDC33normwrzMjM1agDQmN/ZaW1itl0hRyIiIlJ4uaTAWrRoESNGjGDs2LFs27aNdu3acccdd3D48GGn+6ekpFChQgXGjh1L48aNne6zatUqevfuzcqVK9m4cSPVq1cnMjKSY8eOuSLk6+/ShKOtLRs1DktERKSIc0mB9eabbzJo0CAGDx5MeHg4UVFRhIaGMn36dKf716hRgylTptC/f39Kly7tdJ+PP/6YoUOH0qRJE+rVq8esWbPIyMjgxx9/dEXI19+lCUfbe2/gRzpxok47aNDAw0GJiIiIO+R7mobU1FS2bNnC6NGjHdojIyPZsGFDfg+fKTExEZvNRtmyZXPdJyUlhZSUlMzH8fHxgLmApc1mc1ksdvZjXtWxb7oJH19fyqaeZCcNGN16FTMfTQc3xFUUXFNu5Zopv+6j3LqX8us+yq2j/OYh3wXW6dOnSU9PJyQkxKE9JCSE2NjY/B4+0+jRo6latSq33nprrvu8+uqrTJgwIUf7ihUrKFGihMtiuVx0dPRV7de2Vi3K7dpFR1bx7XeVWLbsB7fFVFRcbW4lb5Rf91Fu3Uv5dR/l1pSYmJiv17tsolGLxXGNPcMwcrTl1euvv84nn3zCqlWrrrga/JgxYxg1alTm4/j4eEJDQ4mMjCQoKMglsWRns9mIjo6mS5cuV7XyuNemTbBrF7dafmTuiUE0rNqK6r6xEB7u8tgKu2vNrVwb5dd9lFv3Un7dR7l1ZD8Lllf5LrDKly+Pt7d3jt6qkydP5ujVyos33niDV155hR9++IFGjRpdcV8/Pz/8/PxytFutVrf+sFz18Xv0gIsX2biiG113fcsNLe7C0qQJbN3qttgKO3f/2xV3yq/7KLfupfy6j3Jrym8O8j3I3dfXl4iIiBxditHR0bS+NLA7ryZPnsxLL73E999/T/PmzfN1rAKheXOIiqLkPbeylWZYDAO2b4ezZz0dmYiIiLiQS64iHDVqFLNnz2bu3Lns2rWLkSNHcvjwYYYMGQKYp+769+/v8Jrt27ezfft2Lly4wKlTp9i+fTs7d+7MfP7111/nhRdeYO7cudSoUYPY2FhiY2O5cOGCK0L2qFtugVgqs8cnHAwDVq/2dEgiIiLiQi4Zg9WrVy/OnDnDxIkTiYmJoWHDhixbtoywsDDAnFj08jmxmjZtmnl/y5YtLFiwgLCwMA4ePAiYE5empqbSs2dPh9eNGzeO8ePHuyJsz0hJoV3aBh72PkJ02i3UYRf89JN5+lBERESKBJcNch86dChDhw51+tz8+fNztBmGccXj2QutImfHDvy7duJt71IMZDZPMg1WrvR0VCIiIuJCWovwemvSBMqWJTA9gQRKmW07dsCJEx4NS0RERFxHBdb15uVlDsICmrOFP30uLRW0apXnYhIRERGXUoHlCZ07A9DF8iOvpT1DzMRZ0K6dh4MSERERV3HZGCy5BpcKrFZs4A6+pXW5Egyt4uGYRERExGXUg+UJtWtDtWr4Gqm0Yb3GuIuIiBQxKrA8wWLJ7MVqzxoO//g3GVPf1nxYIiIiRYQKLE/597+x/bKV10tM4N5zs/EaPgzef9/TUYmIiIgLqMDylAYNsLZoSsdOXqzEvKpQ5wpFRESKBhVYHnbbbbCOtqRZfODgQdi3z9MhiYiISD6pwPKkzZvp99NAnmMSG2lltl22aLaIiIgUPiqwPOnECUp/9T4DfD7meyPSbFuxwrMxiYiISL6pwPKkDh3AaqV62gF2Ut9s+/FHSEvzbFwiIiKSLyqwPKlkSWjTBoAqHOe8d1lISoK//vJwYCIiIpIfKrA8LdI8NRjJD3RKj+bYH2ehYUMPByUiIiL5oQLL0y4VWLd6/cQf3MSKDSU9HJCIiIjklwosT2vaFMqVIzAjgZv5WWPcRUREigAVWJ7m5QVdunCxViMCuUiNJVMxIiLgq688HZmIiIjkkQqsguCDD/Dd9Rsbg26nUuI+LFu3wvLlno5KRERE8kgFVkFgtWK1QqdOsIJL82EtXw6G4dm4REREJE9UYBUgd3RMYif1sVmsWjZHRESkEFOBVVBMn87gZ4N5nldYjzk3lk4TioiIFE4qsAqKmjXxSk2hq8+KrGVzvvvOszGJiIhInqjAKijatwc/P6qmHWYHDcy2H3+ExETPxiUiIiLXTAVWQVGiBLRrB8AN7GeHXzPo2RPi4jwcmIiIiFwrFVgFye23A9CNZTRM2cyhlz+EypU9HJSIiIhcKxVYBUm3bgB0sKymJBc0q7uIiEghpQKrIKlTB268EV8jlVv5gWXfGvD773DsmKcjExERkWugAqsgsVjgX//i6Kj/sZnmdP/mUWjcGObM8XRkIiIicg1UYBU0Q4ZQ9Y1RUC2UNemtzbZvvvFsTCIiInJNVGAVQBYL3H03LKOr2fDrrxAb69mgRERE5KqpwCqITp9miP982rKObdb/M9uWLvVsTCIiInLVVGAVREuXctObDzPGaxKf27qbbYsXezYmERERuWoqsAqiruapwYiMzayjrdn2ww9w4YIHgxIREZGrpQKrIAoJgf8zTw3WYi9HfGtBSooWfxYRESkkVGAVVJcmHe3GtwxLncyJj6PNke8iIiJS4KnAKqguFVi3e63ge27ns7O3gtXq4aBERETkariswJo2bRo1a9bE39+fiIgI1q5dm+u+MTEx9OnTh7p16+Ll5cWIESOc7vfFF19Qv359/Pz8qF+/Pl999ZWrwi34mjaF6tUpkXGRSFbw9deeDkhERESulksKrEWLFjFixAjGjh3Ltm3baNeuHXfccQeHDx92un9KSgoVKlRg7NixNG7c2Ok+GzdupFevXvTr14/ffvuNfv368cADD/DLL7+4IuSCz2KBe+/FsFhoyJ+cWLmT5CdGwmuveToyERER+QcuKbDefPNNBg0axODBgwkPDycqKorQ0FCmT5/udP8aNWowZcoU+vfvT+nSpZ3uExUVRZcuXRgzZgz16tVjzJgxdO7cmaioKFeEXDj8+99YYmJYetNYambsxX9GFMyYAYbh6chERETkCvJdYKWmprJlyxYiIyMd2iMjI9mwYUOej7tx48Ycx7ztttvydcxCp0oVCAnhnnvgB24lxTsADh2C337zdGQiIiJyBT75PcDp06dJT08nJCTEoT0kJITYfCzvEhsbe83HTElJISUlJfNxfHw8ADabDZvNludYcmM/pjuOnV23bjD5JQvLjdu4m69J//JLMho0cOt7etr1ym1xpfy6j3LrXsqv+yi3jvKbh3wXWHYWi8XhsWEYOdrcfcxXX32VCRMm5GhfsWIFJUqUyFcsVxIdHe22Y/ufPUuzN9/koNcpxmS8wt18TcJHH7E6IsJt71mQuDO3ovy6k3LrXsqv+yi3psTExHy9Pt8FVvny5fH29s7Rs3Ty5MkcPVDXolKlStd8zDFjxjBq1KjMx/Hx8YSGhhIZGUlQUFCeY8mNzWYjOjqaLl26YHXXFAo2Gz7PPIMl4yxnKEeGxYsyBw7QtX59qFHDPe9ZAFyX3BZjyq/7KLfupfy6j3LryH4WLK/yXWD5+voSERFBdHQ0PXr0yGyPjo6me/fueT5uq1atiI6OZuTIkZltK1asoHXr1rm+xs/PDz8/vxztVqvVrT8sbj2+1WpOMDp/PrfyAxu829E2bTXW776DYcPc854FiLv/7Yo75dd9lFv3Un7dR7k15TcHLjlFOGrUKPr160fz5s1p1aoVM2fO5PDhwwwZMgQwe5aOHTvGBx98kPma7du3A3DhwgVOnTrF9u3b8fX1pX79+gAMHz6c9u3bM2nSJLp3787ixYv54YcfWLdunStCLlx69oT58+np9SWT0/7F/5X7m5xlpIiIiBQULimwevXqxZkzZ5g4cSIxMTE0bNiQZcuWERYWBpgTi14+J1bTpk0z72/ZsoUFCxYQFhbGwYMHAWjdujULFy7khRde4MUXX6RWrVosWrSIli1buiLkwuXWWyEoiMrxx9lCM57tfYQpwzQJv4iISEHlskHuQ4cOZejQoU6fmz9/fo424yrmcurZsyc9e/bMb2iFn5+feZrwo4+4h8W8tbgjUVPNuUhFRESk4FE3SGFxqdC83/I5R49ksGVTOvz1l4eDEhEREWdc1oMlbhYZCd27s/ToXYRtOUi9TjeDJRFOnwZ/f09HJyIiItmoB6uwCAiAr78maOQgDlKThFQ/uHgRfvjB05GJiIjIZVRgFTJ33gk+Pha+SLs0BcbixZ4NSERERHJQgVXIlEk4wpRaU9lCM7NhyRJIT/dsUCIiIuJABVZhM2IEQ3cP50b2kuBdGk6ehJ9/9nRUIiIiko0KrMLm3nsBuIfFLE7vZrZ9/bXn4hEREZEcVGAVNnfeCVYrDdjJr/yf2fb113AV84qJiIjI9aECq7ApUwY6dzbvco6FNUfDRx95NiYRERFxoAKrMLp0mvAuvqHfkVc5X7elpnUXEREpQFRgFUbdu4PFQnO2UCXtEN9+6+mAREREJDsVWIVRxYrQrh1p3r40YysHp38Hjz4KR496OjIRERFBBVbhNXs2f/50iq/pQaeNL8Ps2eacWCIiIuJxKrAKq9q1adwuiLAw+DLjHrNN0zWIiIgUCCqwCjGLBXr0gGV0NRtWroTz5z0ak4iIiKjAKtw2bGDisgje4Bn+8qoPaWmwbJmnoxIRESn2VGAVZuXLU2rPVm7lB77JuN1s++ILz8YkIiIiKrAKtTp1oEEDrKRxjmCzbdkyuHDBs3GJiIgUcyqwCrtLk45GsIUD3jdihIXBwYOejUlERKSYU4FV2F0qsG5nOR3To/ll3i5o2NDDQYmIiBRvKrAKu8aNoWZNSpBEc7bw5VdaMkdERMTTVGAVdhZLZi/WvXzJZ5+BkZikWd1FREQ8SAVWUfDAA6T17MUS/140P/gZGRUqwpNPejoqERGRYksFVlHQogU+ny3E59672UU43okX4PvvIS7O05GJiIgUSyqwipBevWAHDdntUx9SU7U2oYiIiIeowCoqDIPbq+/kP/6TWJjW02z79FPPxiQiIlJMqcAqKtLT8e3cjgnJo9lPTbNt+XI4e9azcYmIiBRDKrCKCh8fuPtuACLYyp8+jcFmUy+WiIiIB6jAKkruuw+Anl5fMi+tn9n2wQceDEhERKR4UoFVlNx6KwQFUSXjGPu4gSXNxsOHH3o6KhERkWJHBVZR4u8P998PwJ0s4+GD40gNreXhoERERIofFVhFzUMPAfCA5TMunk1m2TIPxyMiIlIMqcAqatq3h2rV8PWF+uxkx6Rv4J57YMMGT0cmIiJSbPh4OgBxMS8v+P579iXVYtv/+TPil6lgLIaQEGjd2tPRiYiIFAvqwSqKGjSgYXN/mjaF+UZ/s+3TTyE52bNxiYiIFBMqsIqw/v0MfucmTlirwfnz8M03ng5JRESkWHBZgTVt2jRq1qyJv78/ERERrF279or7r169moiICPz9/bnhhhuYMWNGjn2ioqKoW7cuAQEBhIaGMnLkSJLVC3N1Nm7kqbfrsIR7mGszB75rygYREZHrwyUF1qJFixgxYgRjx45l27ZttGvXjjvuuIPDhw873f/AgQN07dqVdu3asW3bNp5//nmGDRvGF198kbnPxx9/zOjRoxk3bhy7du1izpw5LFq0iDFjxrgi5KIvLAyfQ/tpzQbW0N5sW7YMTp3ybFwiIiLFgEsKrDfffJNBgwYxePBgwsPDiYqKIjQ0lOnTpzvdf8aMGVSvXp2oqCjCw8MZPHgwjzzyCG+88UbmPhs3bqRNmzb06dOHGjVqEBkZSe/evdm8ebMrQi76qlSB224DoA3r+d0aAWlpsGiRhwMTEREp+vJdYKWmprJlyxYiIyMd2iMjI9mQy9QAGzduzLH/bbfdxubNm7HZbAC0bduWLVu2sGnTJgD279/PsmXLuPPOO/MbcvExYAAAAy0fMNf2EHF1/w8qV/ZwUCIiIkVfvqdpOH36NOnp6YSEhDi0h4SEEBsb6/Q1sbGxTvdPS0vj9OnTVK5cmQcffJBTp07Rtm1bDMMgLS2NJ554gtGjR+caS0pKCikpKZmP4+PjAbDZbJmFmyvZj+mOY7tE1674lC5Ntbgj/EkDnmz+M/PuTjcXgS7gCnxuCznl132UW/dSft1HuXWU3zy4bB4si8Xi8NgwjBxt/7R/9vZVq1bx3//+l2nTptGyZUv27t3L8OHDqVy5Mi+++KLTY7766qtMmDAhR/uKFSsoUaLENX2eaxEdHe22Y+dXo5tvpuby5QzgAx79/Ba6dVtBQECap8O6agU5t0WB8us+yq17Kb/uo9yaEhMT8/X6fBdY5cuXx9vbO0dv1cmTJ3P0UtlVqlTJ6f4+Pj6UK1cOgBdffJF+/foxePBgAG666SYuXrzIY489xtixY/Hyynl2c8yYMYwaNSrzcXx8PKGhoURGRhIUFJSvz+mMzWYjOjqaLl26YLVaXX58V7CUKwfLl9PT8gVPpryL7VRLepZYjPHQQ+akpAVUYchtYab8uo9y617Kr/sot47sZ8HyKt8Flq+vLxEREURHR9OjR4/M9ujoaLp37+70Na1atWLp0qUObStWrKB58+aZ/6iJiYk5iihvb28Mw8js7bqcn58ffn5+OdqtVqtbf1jcffx8adMGnnmGz890JXFeAHc+Uwef1BNQqxZ07Ojp6P5Rgc5tEaD8uo9y617Kr/sot6b85sAlXRijRo1i9uzZzJ07l127djFy5EgOHz7MkCFDALNnqX///pn7DxkyhEOHDjFq1Ch27drF3LlzmTNnDs8880zmPnfddRfTp09n4cKFHDhwgOjoaF588UXuvvtuvL29XRF28WCxwOTJtB93C+lY+SL1LrNdc2KJiIi4jUvGYPXq1YszZ84wceJEYmJiaNiwIcuWLSMsLAyAmJgYhzmxatasybJlyxg5ciTvvvsuVapUYerUqdx3332Z+7zwwgtYLBZeeOEFjh07RoUKFbjrrrv473//64qQi52wMLjlFvhgZX8eZTZ89hm8/Ta4cWyaiIhIceWyQe5Dhw5l6NChTp+bP39+jrYOHTqwdevW3APz8WHcuHGMGzfOVSEWb3/9xTs+M5hJGEd9alAt4SAsWQIPPujpyERERIqcgjvKWVxr82bqR09hmOUd5qZdWjrngw88G5OIiEgRpQKruOjRA0qW5AZjPzupb7atWAG5zFUmIiIieacCq7gIDISePQHoxEp+9b7ZvBpz3ToPByYiIlL0qMAqTi5dydnL8ilPpb/FsveOZhZdIiIi4joqsIqTDh2genVKG3HU4BDvLdG6hCIiIu6gAqs48fKCfv0A6M8HfPcdnDwJ5HM5ABEREXGkAqu46d8fKlXidKWbqJR2mOR2t0K9epCe7unIREREigwVWMVNnTpw9CgXXniNk4RQet9WOHIEfvrJ05GJiIgUGSqwiiNvbx58EAyrHx+nX5poVEvniIiIuIwKrGKqXJl0xraI5kc6mQ1ffgkXLng2KBERkSJCBVZxNWQI49ZH0oqN7POuDRcvwldfeToqERGRIkEFVnF1110A9LN8zAfpfc02J2tGioiIyLVTgVVc3X47lC9PiHGCA9Qgw+JlDnT/6y9PRyYiIlLoqcAqrnx9oU8fAO5kGf/zepak6fMhLMyzcYmIiBQBPp4OQDzo4Ydh6lTu5Suqph+lrLUigwI8HZSIiEjhpx6s4qxJE/i//8OKjQG8z9y5ng5IRESkaFCBVdw99hgAbS3r+W3DBY79Owruuw8Mw7NxiYiIFGIqsIq7Bx+EDRtY+MBXWLFR/q3nzTmx1q/3dGQiIiKFlgqs4q5kSWjViiefsnCeYBbS22x/913PxiUiIlKIqcASANq0gZsbXuC99EfMhs8/h2PHPBuUiIhIIaUCSwCwvPUmq/dWoR3r2OTfDtLSYMYMT4clIiJSKKnAElPZsvgmJzDM8g7/Sx5qtr33HqSkeDYuERGRQkgFlpgefBAqVqSqcRQvMjjlXw1OnYJFizwdmYiISKGjAktM/v7wxBMADONtJiUPJ+G2ntCggYcDExERKXxUYEmWJ54AX19a8TPraMvztT+DiAhPRyUiIlLoqMCSLCEhmesTDmcK8+dDXJxnQxIRESmMVGCJoxEjALjX8hU+F87x9aTd8K9/QWysZ+MSEREpRLTYszhq3BimTePzc105PzaYhm92g5QNUK4cPP+8p6MTEREpFNSDJTk98QT3DA8jOBimpDxuts2cCenpno1LRESkkFCBJU4FBsLAgfAV95BgDYZDh2DFCk+HJSIiUiiowBLn9u5l4ra7+IEuzLENMNs0s7uIiMhVUYElzpUpQ8kNK2jJJtbQ1mz75hs4etSzcYmIiBQCKrDEufLloUcPADrzExt9O0BGBsye7eHARERECj4VWJK7Rx8F4CHLx0xPfZjUksHm4CwRERG5IhVYkrtbboGaNSltxOFNOr3bHoV//9vTUYmIiBR4KrAkd15eMHgwAI8wj69XlODwYQ/HJCIiUgiowJIrGzgQvL1pxzpqZ/zF3DkGREfDn396OjIREZECy2UF1rRp06hZsyb+/v5ERESwdu3aK+6/evVqIiIi8Pf354YbbmCGkykAzp8/z5NPPknlypXx9/cnPDycZcuWuSpkuRpVqsC//sWmQTM4RlXKvzUWIiPhv//1dGQiIiIFlksKrEWLFjFixAjGjh3Ltm3baNeuHXfccQeHczmfdODAAbp27Uq7du3Ytm0bzz//PMOGDeOLL77I3Cc1NZUuXbpw8OBBPv/8c3bv3s2sWbOoWrWqK0KWazFpEo3eeRy/cqWYnfCA2fb553DsmGfjEhERKaBcUmC9+eabDBo0iMGDBxMeHk5UVBShoaFMnz7d6f4zZsygevXqREVFER4ezuDBg3nkkUd44403MveZO3cuZ8+e5euvv6ZNmzaEhYXRtm1bGjdu7IqQ5Rr5+8OAAfAbTfizXHtIS4OpUz0dloiISIGU78WeU1NT2bJlC6NHj3Zoj4yMZMOGDU5fs3HjRiIjIx3abrvtNubMmYPNZsNqtbJkyRJatWrFk08+yeLFi6lQoQJ9+vThueeew9vb2+lxU1JSSElJyXwcHx8PgM1mw2az5edjOmU/pjuOXeAkJDAyYAE12M3zZ59hCWswpk8n7V//guBgl79dscqtByi/7qPcupfy6z7KraP85iHfBdbp06dJT08nJCTEoT0kJITY2Finr4mNjXW6f1paGqdPn6Zy5crs37+fn376ib59+7Js2TL+/vtvnnzySdLS0vjPf/7j9LivvvoqEyZMyNG+YsUKSpQokcdP+M+io6PdduyCIuDECbq8MoynMYgyhnMwqC414nezd8QI9vTq5bb3LQ659STl132UW/dSft1HuTUlJibm6/X5LrDsLBaLw2PDMHK0/dP+2dszMjKoWLEiM2fOxNvbm4iICI4fP87kyZNzLbDGjBnDqFGjMh/Hx8cTGhpKZGQkQUFBefpcV2Kz2YiOjqZLly5YrVaXH7+gMb74AsuKFQxiLi+nj2M2fai3fDk3vvsulCzp0vcqbrm93pRf91Fu3Uv5dR/l1pH9LFhe5bvAKl++PN7e3jl6q06ePJmjl8quUqVKTvf38fGhXLlyAFSuXBmr1epwOjA8PJzY2FhSU1Px9fXNcVw/Pz/8/PxytFutVrf+sLj7+AXGY4/BihUM9p5H6MUD/K/CjZQO8ccaGwvh4W55y2KTWw9Rft1HuXUv5dd9lFtTfnOQ70Huvr6+RERE5OhSjI6OpnXr1k5f06pVqxz7r1ixgubNm2d+oDZt2rB3714yMjIy99mzZw+VK1d2WlzJdXDXXVCxIhXTY+nKd/QosxJj+29uK65EREQKK5dcRThq1Chmz57N3Llz2bVrFyNHjuTw4cMMGTIEME/d9e/fP3P/IUOGcOjQIUaNGsWuXbuYO3cuc+bM4Zlnnsnc54knnuDMmTMMHz6cPXv28O233/LKK6/w5JNPuiJkyQtfX3j4YQCGeM9i5d/V+OEnzVUrIiJyOZf8duzVqxdRUVFMnDiRJk2asGbNGpYtW0ZYWBgAMTExDnNi1axZk2XLlrFq1SqaNGnCSy+9xNSpU7nvvvsy9wkNDWXFihX8+uuvNGrUiGHDhjF8+PAcVyvKdXZp6Zwu6d8TymHeegtITITXX4cTJzwbm4iISAHhskHuQ4cOZejQoU6fmz9/fo62Dh06sHXr1ises1WrVvz888+uCE9c5cYb4dZbScoIoMTKZL77Ds537U2Z1Uvg0CF4911PRygiIuJxOr8j1+7bbwn8cQnNHqwDwFvGSLP9vffgr788GJiIiEjBoAJLrt2liwyef958+NLajiTccjekp8Ozz3owMBERkYJBBZbkWcNSh5jfYDKGYTCx5Ovg7Q1Ll8LKlZ4OTURExKNUYEneJCbCTTcxYMeztGcN//umLmfuN68a5V//gmzTa4iIiBQ3KrAkb0qUgD59AHiz0mQMA54+PQ6CgmDbNvjwQw8HKCIi4jkqsCTvnnkGvLyIiP2WCO/tfPJDBfb3Hgv33gu5TDIrIiJSHKjAkry78Ua4tNDzzBqvANB7678xPv8Catf2ZGQiIiIepQJL8mfMGACa7v+cZiX+YtOvFj79NNvzlxbxFhERKU5UYEn+3HQT3H03FsNg/o0vA2bNlbLnEDzyCIwc6eEARURErj8VWJJ/48ZBYCB1u9aiSmWDAwdgSdR+mDcPpk+HbMskiYiIFAcqsCT/mjWDY8fwfXUCL//XAsBjn9yCrd0tkJoK//2vhwMUERG5vlRgiWuULg1A//7mWcPz52F2tQnmc3PnwoEDnotNRETkOlOBJS7lvX4N31R+FAsZjPqqHcntukBaGrz0kqdDExERuW5UYInrxMVBt25UXzGb/9T9lORkeLPMRPO5Dz6A3bs9G5+IiMh1ogJLXKd06czFnkcnPI8vKbz47c0kdOxmLgT9yiseDlBEROT6UIElrjVyJFSujP/xA0xrOJ2MDHjR+1Vz7oapUz0dnYiIyHWhAktcKzAQJpqnBQcceYlgy3mm/NiQjXe9kjkQXkREpKhTgSWuN3Ag1K+PT9xZPmr4GgDPPXdpUnfDgJMnPRqeiIiIu6nAEtfz8YFJkwC4Y08UtfyOsnYtrJq9F9q2hU6dzDFZIiIiRZQKLHGPO++Efv2wzJ7NfU9XAeCFqPIYf/0FO3bA/PmejU9ERMSNVGCJe1gs5tQMDz3Ec2O8KFMGNuwsw5bbXzCff/55c1oHERGRIkgFlrhd2bIw9l/JADy49kky6tYzx2GNH+/ZwERERNxEBZa43/vvM2paLXqV+4F9R3xZ1PrSdA1vvw1//OHZ2ERERNxABZa437ZteMUcZ1rgM3iRzuBFXUi8415zoPvTT1+6vFBERKToUIEl7vfCCxAcTNnDv/FazZkkJsJo65vg7w8JCXDunKcjFBERcSkVWOJ+5ctnLvY88sxYynOat5eEsT1qFfzyizlIS0REpAhRgSXXx+OPQ6NG+MSf4/Nw80rCAdNaYjN8PByYiIiI66nAkuvDxwfeeQeA9n/NpGPQVn7/Hf73PyA52TyN+P33no1RRETERVRgyfXTrh306YPFMJh8x0+AOVPDqTFvwn//a/ZyXbjg2RhFRERcQAWWXF9vvAErVxLxyTPcfjukpECfX4Zj1KgBhw+bPVkiIiKFnAosub4qV4aOHbFYYMYMKFkSftgYyNI73zOfnzrVHPguIiJSiKnAEo8JyzjAqlZjAIM+8yNJ6NHfnBNr8GBITfV0eCIiInmmAks8IykJWrYkIvo13rpxGhcvQt8Tb2JUqAB//onX5MmejlBERCTPVGCJZwQEZI63GnbkGZoF7GLphnJ8f/sUALymTsUnKcmTEYqIiOSZCizxnKeegi5d8EpJ5vvyD2Ellfs+e5AzwyaQ9ssvpAUEeDpCERGRPFGBJZ7j5QXz50PZslQ4spV5YRNISrZw7/b/kFG9hqejExERyTOXFVjTpk2jZs2a+Pv7ExERwdq1a6+4/+rVq4mIiMDf358bbriBGTNm5LrvwoULsVgs3HPPPa4KVwqKKlXgPfMKwj6HX6WL/1rWrIEZM8wfTcvq1XDkiCcjFBERuWYuKbAWLVrEiBEjGDt2LNu2baNdu3bccccdHD582On+Bw4coGvXrrRr145t27bx/PPPM2zYML744osc+x46dIhnnnmGdu3auSJUKYh69oSBA7EYBu/VfgOAsWO9qPDRMny6dIGhQ82rC0VERAoJlxRYb775JoMGDWLw4MGEh4cTFRVFaGgo06dPd7r/jBkzqF69OlFRUYSHhzN48GAeeeQR3njjDYf90tPT6du3LxMmTOCGG25wRahSUE2ZAi+/TNgvn9KhA1y8aGHS9n4YVit88w189JGnIxQREblq+S6wUlNT2bJlC5GRkQ7tkZGRbNiwwelrNm7cmGP/2267jc2bN2Oz2TLbJk6cSIUKFRg0aFB+w5SCLigIxo7FK8CPOXOgRAmDJXvb8kvkpZndn3rKnOldRESkEPDJ7wFOnz5Neno6ISEhDu0hISHExsY6fU1sbKzT/dPS0jh9+jSVK1dm/fr1zJkzh+3bt191LCkpKaSkpGQ+jo+PB8BmszkUbq5iP6Y7jl2cVa+Sxvft3+DB7x/h9lVjiGmyjIDtv5DRvz/py5ebg+MlX/Sz6z7KrXspv+6j3DrKbx7yXWDZWSwWh8eGYeRo+6f97e0JCQk89NBDzJo1i/Lly191DK+++ioTJkzI0b5ixQpKlChx1ce5VtHR0W47dnHUeNo02q1YwWeBP9L24k/cnzSFr/074rN6NTuHDGGfLnZwGf3suo9y617Kr/sot6bExMR8vT7fBVb58uXx9vbO0Vt18uTJHL1UdpUqVXK6v4+PD+XKlWPHjh0cPHiQu+66K/P5jIwMM2AfH3bv3k2tWrVyHHfMmDGMGjUq83F8fDyhoaFERkYSFBSU58+YG5vNRnR0NF26dMFqtbr8+MVWrVoYLVrQ+uJqRlmn8r/dI1j1QBS3fjqEBgsWUPeFF6B6dU9HWajpZ9d9lFv3Un7dR7l1ZD8Lllf5LrB8fX2JiIggOjqaHj16ZLZHR0fTvXt3p69p1aoVS5cudWhbsWIFzZs3x2q1Uq9ePf744w+H51944QUSEhKYMmUKoaGhTo/r5+eHn59fjnar1erWHxZ3H7/YadiQ9Ndfx/vpp3nNGM333Eq3rx8jptt6gvt2xeqkuJa80c+u+yi37qX8uo9ya8pvDlxyinDUqFH069eP5s2b06pVK2bOnMnhw4cZMmQIYPYsHTt2jA8++ACAIUOG8M477zBq1CgeffRRNm7cyJw5c/jkk08A8Pf3p2HDhg7vUaZMGYAc7VI0ZTz2GKfmz6fSli0sLdWXegmbaLPvAzbfDe472SsiIuIaLhkt3KtXL6Kiopg4cSJNmjRhzZo1LFu2jLCwMABiYmIc5sSqWbMmy5YtY9WqVTRp0oSXXnqJqVOnct9997kiHCkKLBa2P/00RoUK1Ez4nZklRrBrF4wYcen5mBj48ktPRigiIpIrlw1yHzp0KEOHDnX63Pz583O0dejQga1bt1718Z0dQ4q2lDJlSJ87F5+776ZvxoeMYzSzZoVxa/gxHni9OZw+DatWQZs2ng5VRETEga53lwLNuO02mDYNny2beHi82SPaf3QVztzUAdLS4N574dAhD0cpIiLiSAWWFHxDhkD9+rz4InTvDimpFm7+cw62hk3g5Emz8eJFT0cpIiKSSQWWFBpeXvDx42tYGdiNozFePOC3BKNiRfjtNxg8WOsViohIgaECSwqPpCQCH+lFx4vfstCnH4u3VGVc/c8xfHxg4UK4bC1LERERT1GBJYVHQIBZSPn60j3tC6K8RvHSqrZ83XGK+fyHH0JqqmdjFBERQQWWFDYdOsC8eQAMy5jCRP7DvT88waoHZ8D69eDr6+EARUREVGBJYdSnD0ydCsCLvMwYXqXzp4+zdFWprH00HktERDxIBZYUTk8/DZMmAfAKY7kr42sefBA2/2qYY7F691aRJSIiHuOyiUZFrrtnn4WkJDL+2EFafFcSo2HY7XtYn/A8FpsNGjWC55/3dJQiIlIMqQdLCrf//AevRZ+w4HNfGjeGjWfrMq7cu+ZzL7wAn37q2fhERKRYUoElhZvFAt7eBAXBt0szmFNyGH/FluaLqk+bpwj79YPVqz0dpYiIFDMqsKTIqLryIx658DYf05ePjnVkU7V7zWkbuneHP//0dHgiIlKMqMCSoqNvX3joIayksZDevHR0AAertYG4OLjjDoiP93SEIiJSTKjAkqLD29ucI+u++/AjlU/pxdNHn+V05YYwdiwEBXk6QhERKSZUYEnR4uMDCxZAt24EkMwn9OHBmDeZkjLE05GJiEgxogJLih5fX/jsM4xbb6UkF/mS+5gw4ixTpgCnT8P998ORI56OUkREijAVWFI0+ftjWbIEo2dPvr1nNucoy4gRsLvtIPj8c2jTBvbs8XSUIiJSRKnAkqIrIADLp5/y4JcP8OKLZtPju0dwonQdswerfXvYscOzMYqISJGkAkuKNosFiwUmToQ5/43lYx7ieFwAhwPD4cQJ6NgRfvvN01GKiEgRowJLio1HOh2kfMlkmvIbZS4e5YjvDeaYrE6dYOtWT4cnIiJFiAosKT5uvhm/HdtIaNSaIBIITd3PCa9KcPYsPPIIZGR4OkIRESkiVGBJ8VK9OqW2rOb8Y88CEJIRy2lLebYPmQFe+u8gIiKuod8oUvz4+FDmvUnEz/+Si96lKG+cZvOT8/jii0vPnzzp0fBERKTwU4ElxVbQgB54bdnMxsr3MipjMvffD0se+wZq1jQnKxUREckjFVhSrAU0rkOLI1/w0BNBGAacnfU5JCaa6xpOmACG4ekQRUSkEFKBJcWetze8+y689hr8yv9lPTF+vFloJSd7LDYRESmcVGCJABYLPPcc3PdOJ371bpn1xCefQIsWWlpHRESuiQoskWw6PRlOmT/X83rlt0jCz2z84w+M2rVh2zbPBiciIoWGCiyRy9Su583T+0Yw/oG/WMqdAFhSUoh7YrSHIxMRkcJCBZaIEwEBMGlRDYzF39A9eDXracW9vzzH0KEQt+cE/PornD/v6TBFRIqfixfNMwrR0Z6O5IpUYIlcwd13w9y/2zOj73p+4hZmTM/gt5seIqNVa6haFSZNMq86FBEpSGw2OHUK/v7bLEbi4jwdUf78+99w220QFgYlS0KzZtCnj6ejuiIfTwcgUtCVKwcffmRh0GAYNTiBlH0GXqRBYhqMHg1RUfDCCzBwIAQGejpcESls0tMhKcn8Yy0xEdLS4MYbs55fsQKOH4eEBLhwwdzs9/39Ydq0rH27dYPVq83nLteoEfz0k/mlVtCcPGmeGdi0ydx8fWHx4qznv/0Wdu3Kely+PNSrZ+YtIOD6x3sVVGCJXKWOHWHDn0G8NGEFaya9wnhjHN5kQGwsPPUUvPgiDBkCTz5p9m6JSPFy/Li5tun583DunHlr3wIDYdSorH0jI2H7doiPh5QUx+OEhcHBg1mPx46FzZudv2dwsGOBlZzsWFyVKmUWYadOQWoqlC2b9Zyni5NZs8zTfJs2waFDjs8FBJiFps+lMuW558zH9epB3bpmgVXAqcASuQb+/vDfV73Yev8LDO7VkQl7e1OdoxiA5dw5ePVVc3LSV1/1dKgi4gqrV0NMDJw+bRYpp09nbSEhjqs+dOgAe/c6P06NGo4F1vnz5vEuFxAAfn6Oba1bQ4UK5qmxUqUcb8uUcdx35kxz4frgYChdOqtAOX0ajh4156QBcxzTjTfC7bfDs89CePg1JOUfpKWZPVIxMWbRGRNjTnVz4AB8+GFWDEuXmhuYbfXqmdPitGgB//d/juvDDhjguviuExVYInnQrBnM3NmWdyb+xo2vPMxdGUs4SlWSK4YR3LUfmR3w33wD8+dDjx7Qtav5pScinrV1q/kL3/7LP/tt5cqwbFnWvoMGwb59zo8TFub4uGJFc6xTmTJZW3CweVu5suO+s2ebRUVQkNm7VaKE+Recs0Xnp0y5+s92ww3O28uXd+z1+fZbs/d9/nxzi4zE0qsXPpcXd5dLTzfzdPBg1vb88+aMzQCPPQZz5phFnjOTJmX18PfvD23amMVURIRZEBYhKrBE8shqhZEvlWXfgK+Z0udj5v/agO0nm1LqThjxRApPD7FRYdEi+OILc/PxMc8z3nMPdO8O1ap5+iOIFD2nT8POnbBjh3m7b9+lgZQfZu1z//2wf3/ur8+uZUsIDc0qUOxbhQpQqZLjvuvXX32cjRpd/b7u8MADZoE4aRJ89RWsWIHPihV0tVjMts8+M0/FAUyfbn6HHTwIhw+bA+ize/TRrFwEBprFlZeX2ValillcVqli9pL5+2e9rmfP6/JRPUUFlkg+1brRwvBND9F0jXkGYMsWSH/9DVInT2fpzU/S9onnCV6z2PzC/+EHc3vqKWjeHFat0sB4KZhOnzaLkOyDqlNSzDE8FSvCTTeZp6k8JSHBcTzRAw+Y/5+cnXa7fExk06Zm0VWlimMBULlyzn0//tjloRcYLVvCl1+aRejHH2MsWIBl92744w+zR81u71748cesxz4+UL26edqzZk3HY44ZY46XqlAhq1ermHJZgTVt2jQmT55MTEwMDRo0ICoqinbt2uW6/+rVqxk1ahQ7duygSpUqPPvsswwZMiTz+VmzZvHBBx/w559/AhAREcErr7xCixYtXBWyiEu1b2+O1VzyVToNH1pI1eRjVN34PFs2NmNxyzeJnFODNmeWYFn8NWzYYA44zV5cPf20+aXWrJn5y6tWrZxjMUQul5hojneJi8u6siwhIev+Aw9k9S7YT1lnvwot++3335vjiAAWLTL/EMjNvHnmlbMAx46ZxVhEhOMvZlc4f94cDL5jB+zYgfeOHdy+fTs+QUGOS1idOZNVXNWoAfXrQ4MGUKeO2QOV3eefuzbGwq5WLfjPf0gbM4YfP/6YWwMC8KlSJev5Xr2gceOsgqpKldyLp4oVr0vIhYFLCqxFixYxYsQIpk2bRps2bXjvvfe444472LlzJ9WrV8+x/4EDB+jatSuPPvooH330EevXr2fo0KFUqFCB++67D4BVq1bRu3dvWrdujb+/P6+//jqRkZHs2LGDqrpCSwooLy+45z5vjK6/8vcTb1D1o9eJSN9KxC+38dMvt/Bg2Ku0//czDHj/BCXPH816oc1mXlGT/WoiLy+zC79OHejUyRyIamcYWQNFpeg5d868qio21txOnHC8nT07a6zNG2/AuHG5H6tp06wC68AB81RPbrJffVa+vNlLkX1Ata+vWfAcO2Ye1+7LL2HYMPOXbuPGZs/IzTebBdeNN17dHwqGYRZI2X9B33efeexsvAA/wLAXkfZetFdfNf9PhIebsUqepAQHY3Tt6lhA2QeeFzCGYdbVBfWCQpcUWG+++SaDBg1i8ODBAERFRbF8+XKmT5/Oq06uppoxYwbVq1cnKioKgPDwcDZv3swbb7yRWWB9fFm37KxZs/j888/58ccf6d+/vyvCFnEbS4A/tee/AJMf59yzr1Lqg3fplLGSToduZsRTb1E1aAQPPxzCU6UvTXeTng5vv20Ovt22zZzvJT7e/IV44IDjLwzDML9RKlc2i6+qVc1TJfatbl3HL8PslzoXROnpjl/m27aZn93eqxIXl7WFhJi/yO169DB7MVJSzMvT7VtKipmHX3/N2nfECHNAcWQktGrl2dMXNhvs2QN//mn2zOzdC5MnZ52emjoVxo/P/fVHjmQVWOXKmVeelS6d8wqzy68y69gR3n035z72+9nHFPXqZW5XIz3d/HmMiTF/hrduNcftgPmHwrZtWWOOFi82r8xLTjanCThzxhzXc/iw+W984ULW1AH2YisszHx9/fqk1a3LurNnaTNoENbspygLYAEg+ZeRYY6p//tv87/J3r2O9wMDnZ8VLgjy/a2bmprKli1bGD3acZ22yMhINmzY4PQ1GzduJDIy0qHttttuY86cOdhsNqxWa47XJCYmYrPZKJv9nPtlUlJSSMnWAxAfHw+AzWbDdvmgPBewH9Mdxy7uikxuy5Sh5MxJGC88SfJ/XsLns0X8UaUb8YfMC4OmTDG45RaDnj2t9Oo1kCD7KRfDgJMnsfz9t/ltUqUKhj0Xx45hPXvWnG9nx44cb5nRqxfp9gG9aWn4BAZm/aItWRKjRAm8rFbaJCRgbN6M7T//yXxP7z59zF4KX1+MS7f4+YHVilGvHkbfvpnv4zV2rFkopKdnbpa0NEhPx6hXj4xsl6R79+xp9spcvIjlwgXztNalsT1GmzakZ1vywicyEsvlA40vMZo2Je2JJ7L2/e03LAcOON83Pp60bD8/Pp9/juXYMXjpJYwKFTC6dSOje3eMzp1deio2t59dyw8/4DV/PpYdO2DPHiyXPZ82cCDGpYLCEhKCd6VKULEihv02JARCQjBCQjBq1coaaDx4sHnl1pWDMm/r1TO3q9n3Wjz5JAwdCkePYvnlFyybNmH5+Wcsf/6J5cIFbFWrZh7X67vv8H7vPaeHMby8SNu5M6sYGz3a7J3LNjGmzWYjLjoam69v3mIthAzDrEftnXYJCXDxoiVzXtKkJPP5xEQLSUnm3yfx8RAXZyEuzny+Vi2Dtm0N7rrLyPUsrie/d1NSzGsStm+3sHu3hb17LezbZ2H/fkhKyr23PjXV4MyZNIKCXB9TfvNgMQzDyM8Bjh8/TtWqVVm/fj2tW7fObH/llVd4//332b17d47X1KlTh4EDB/L8889ntm3YsIE2bdpw/PhxKl9+OSvw5JNPsnz5cv7880/8s1+FkM348eOZMGFCjvYFCxZQwtXjAkTywDcujuRSpdm+vSLffluToVueJxl/3uZp9lnr0LDhaSIiThIREUvlyrkswZOeTonTpwk8fpySx47hFxeHb0IC1gsX8E1I4FTjxuy9917z/eLjueMKPb5H27Vjy7/+lXnc7pd6kJ2J+b//Y9PYsZmPu/XsiXdamtN9T910Exteeinz8R39+uGbkOB033O1a7Nm8uTMx+2eew7rxYuk+/lhK1GCtBIlsJUogS0wkMSQEPbfdVfmvhW2b8eSlkaG1UqGry/pVmvm/TQ/P1Ky/UFW/ccfqbB9OxW3bcM326mwNH9/9t95J7v69cv1s/8jw8D/zBmCDh+m1OHDBB06RNDhw/z+6KOcu1TQVP/hB5q+807mS2wBASRUr0589epcqFqVmFatSAwJyXsMBZFh4BcXR0q2XrTKGzcSvHu3+e/l62v+u1aoQFL58lysXJmMIjTuMD3dQlKSD0lJPly8aOXCBXO7eNE3230rSUk+JCf7kJLiTXKyN8nJjo+TknzIyHDNynb+/mm0anWc228/SJ065zwy0iApyYcDB4LYv780Bw6UZv/+0hw5EkRamvPP6O2dQUhIIpUqXaRy5YtUrnzh0u1FKlZMxMcnX2VMrhITE+nTpw9xcXEE5aGCc9l5A8tl/0qGYeRo+6f9nbUDvP7663zyySesWrUq1+IKYMyYMYzK9ldzfHw8oaGhREZG5ik5/8RmsxEdHU2XLl2c9rpJ3hX13HbrBi/0+htrg3kAPM57LLL1Ytq2ocze1obZs2+iWjXzL84uXTLo0sXIcUV4boKBOvYHGRnYbr0Vzp3Dcv68ObngxYukJyfz+5Yt3HTHHXS1X4ySkUF6VJTZK5CSYg7CT0kxH6emUjE8nK5du2a90YgRpBuGeartsi24Rg2HfS3Tp5NmsZg9aYGBGJduCQykZKlSdM0+/03293DCof/lH/Z1YN/XZiNt7VosixfjtWQJPseOUatOHWran4+JwXvkSIwbboAKFTAqVDCviCpRAlJTMWrXNscmAZY1a/D6z3+w7NiBxclab21KliTDftw6dUivUgWjQQOMBg0gNJRSFgv2k1x1r/6TFG7X8m/mxPX8brDZsiZlj4uzZJug3cK5c1zaLJmTtsfFWTJ7mOLjr9zzkleBgUbmGd0SJSAgwLh0m7UFBZn7lC5tbr6+Bjt2WFi82IsDB3xYubI6K1dWp0kTg8cfT+fBBw0CA12T24sX7dOKWTJvY2Kybo8etXDgABhGztwEBxs0aWLQoIHBjTfCjTca1KplUL06WK1+mKPvcj+L5Wr2s2B5le8Cq3z58nh7exMbG+vQfvLkSUJy+WusUqVKTvf38fGh3GVrJL3xxhu88sor/PDDDzT6h3lD/Pz88HPy14/VanXrf0R3H784K9K5DQ83L32eMgXvJUvowyf04RMOlqjP1OTH+PBoHxYurMDCheZfdY0bm2udtmxpXrF41QM7K1fOMcmhYbNxPCCAJu3aOeZ3+PArHsph1FK2Xqd/lO3UosdZrWYib7sN3nkHNm/Gu1IlvO15+OOPHAOrHUydal7xaT+WfSiEtzfUrUtG/frstlqp3aMHPm3bZh03PNy1s2UXc3n5bjAMs/CxXzuQ23bqlFk8uWoddz8/s9AJDnbc7POQ2ucazb5l+xuEUqXMLTAQvL0vL0yuvoh7803YuNGc7H3RIvN03BNP+PDcc9CvH9xxh4WkJO9cc5ucbE4Gbx8yZ98OHTKHBcbEmPm9GlWrmtdJ2LdmzaB6dcsVO2aut/z+7sl3geXr60tERATR0dH06NEjsz06Opru3bs7fU2rVq1Yap8e/5IVK1bQvHlzhw80efJkXn75ZZYvX07z5s3zG6pIwWKxmFcHdupkDgJ+91345BNqJO7kTUYweEw5PrY8xPLl5txav/1mbvaX1qsHTZqYhVejRuZ497Cwgj2evcDx8so5ODo83Lwy78gR8zftyZPmlpxs/qbMPht/kybmUikNG5r/AH5+pNts7Fm2jBu7djULMLku7FeU7duXtR0/nrN4Sk6+9mMHBWUVQ6VLm9eS2Iuk7PdLlzb3tW/2wsjX1+UfN08sFnPVndatzWJr/nyYMcMc5vnuu/Duuz54ed3JCy+YMzeUKGEOMo+NNYuoEyeu7n0CA80Cyj692OVbeLjZKVzU5XsMFpjTNPTr148ZM2bQqlUrZs6cyaxZs9ixYwdhYWGMGTOGY8eO8cEHHwDmNA0NGzbk8ccf59FHH2Xjxo0MGTKETz75JPMqwtdff50XX3yRBQsW0KZNm8z3KlmyJCWv8hLc+Ph4Spcunefzp//EZrOxbNkyunbtWnR7WTyk2OY2Pt6c2PCjj8ylLC6NXUl4azYnlm7i08CH+eTAzfy5w/lfeT4+5jQ1tWtnbTfeaN6GhWVdOFds83sdFIbcGoZ59vfiRbOXJvsFmNm3pKSsAdT2+76+5nRItWubvyiv90c8e9bG/PnrqVixLfv3+7BnD5mbk7O0TgUFmRdM5rZVqGAWTmXKmPsW5T9aMjLgp5/Mr51VqwwOHrxyD1JAgHmGPCzMvLVvoaFmUVWlimfnn3Wl/NYQLvmx6dWrF2fOnGHixInExMTQsGFDli1bRtildZpiYmI4fPhw5v41a9Zk2bJljBw5knfffZcqVaowderUzOIKzIlLU1NT6XnZVPrjxo1j/JUuXxYpzIKC4IknzM3OMCg1/21K/f47zzOL5ytX5uLjvdlevw9rEpry2x9emVf6Jyebf43+/XfOQ3t7m1+AlSpB+fLepKQ0Yd06L0JCspZNK10669Z+vwiNOS7U7FeSnT9/5c0+w8XFi4639vuJieZtbkvFXQt/f7MTr3lzc2va1JwdI78/MxkZZgfirl3m9tdfsHu3WUTFxFiBjrm+tmpVs/elVi3zF3+lSubsHvbiKSTE9XOhFmZeXnDrreZms6Xx0Uc/Ur36rRw+7JN5kWbFilmFVLlymoLvarmkB6ugUg9W4aXcZmMY5hIg8+aZM1AnJWU9V6kS9O4Nb75JRoY5/6O9wLLPF/P33+bpkuxzmF4LP7+cRVdQkNlz4ePzz5u3d87HGRnm9FwZGebHc7ZdGlufuV3++PL2tDTzdRkZWce13/fyMif2bt7cXFu2WTP39bxc7c9uRoZ5BvLoUfPf7fhx8/bkydyLp9RU18drtZq9Ev7+WZv9sZ+f4+Bpf3+zQDt40Lyk3tmFod7eZu9Ww4ZmsWUfAlipknk8Ly9zHy8v8zOdOmWuynPkSFYRtWfPlcc/lS6dTMOGvtSt60WdOubZ2dq1zaLKPoWWXDt97zoqED1YIuJGFgvccou5zZwJ0dHm4IkVK8zBETExgPkLK7SaQehrT9EpIgIea2eeH7RYSE83dz161PwFHhOTxtq1eyhbti5nzngTF2e/Cirr1j5YNSXFHHtxteMvCqrffoNPPjHvlyhhjkPp0MG8YKBFC8c1aF0hIcHM+ZEjWYOBL7+fl4LJyyur0HW2BQVlzR96+WDp7PdLlDBv83r6KyPDLOI3b87afv/d/Nn56y9zyw+rNes0ZHi4WazVqQM1a9rYsGH5pSLANVMXSAGVkWF+YR06ZG72EfX27b33zBUDCigVWCKFib8/3HWXuaWkwLp1OMyw99dfMG1a1uNKlaB1a7xbtqRqixZUbd4cWpbEZjMICfmbrl1rY7U6n9E8PT1rInV70WW/Hx9v9hjZt/R0x8fOtuz72Gd08PIy60f7KQf7fYslc75Th81qzb3dx8c8nn2zWLLuJyebBdamTbB2rTlHq33dbTB7Vpo3zxqrVqWK44DlkiUdY05JMU+5xcebPU9HjpjF65EjcOSIDwcPdiUx8Z97ACwW85/IPnalalXzFJb9CjNnW8mSZgye5uVFZu9Rnz5mm2GYvXA7dpiT1O/fz6VL9M3fk6mpWfPSZmSYOa5QwbwitkqVrOPVrWuOJXTWiVJM5hbNkpKStV6kfStVylxn0e7DD7O6dO2D6+wrIdStm3XVK2R16RYUaWlm4WSfmv2OO7IWkJ4xw5zENjd796rAEhE38PODzp0d2wIDzdXs1641q4nYWHPKAfu0Ay+8AJcmAPWNi8OycKG5sHTt2o4LT2MWE/Zf6peGUxZqd95p3mZkmKe31qwxV2xZs8ZM0/r15pZ/FsCsDEqXzhoAnH0wsP1+lSoF5wozV7BYoFo1c7vtNk9H4yGpqVmD3Xx9sy6XS0mBJUuyplm3T5Zl326+2VzOCczXVq9utjurKHv0cJxK5OGHzarVmVtvzSqwDMM8dxseDj17mhPyuWtEus1mnv89ccL8obfPK7N5sznVyYkTWUuBZZ+w+MMPswqsWrXMYrBKlaxR9WFhWfcjItwTu4uowBIpSqpXh1deMe8nJ5tr8f38M/zyi1lwZZuSIHj3bnzs+4J52dSNN2Z1I/ToYX4ZFzFeXubHatjQXN3FMMw/hH/5JevMQ0xM1u8/e+eBvdclPd2sbe2n3KpUMX9/VKtm3laqlMb+/avp3bs9ZctqHEuhkL1XJynJnNvM3gNk/wGw37ZsmbVG46lT5h859nPqFy44FgsDB5pjJ8EsOB54IPcY0tOzCqyAALObNfsQaX//rDUjL5/jwD55q7071z55VsmSZg+W3e+/Z1058OWX5jFvvx26dze/G+zrWzpjGObnO3nSLI5q1TK7W8H8bvnf/7LGEpw8acZvN38+DBiQlTP7Ul52fn5ZVyZkn+CvUyfze6yQjgdTgSVSVPn7Q7t25maX7Qvb8PEho3VrvHbtMmdVPHvW/KLctMncwT5SGeC77+D557NGK1eubF5aVLaseVlRRETWl20hY7FkTWnhCjabwbJlF4rMpeqFUlqa2ZNkv1zw7FmYM8f85e5se+IJeP11c98zZ8xen9w88khWgeXvb05M64z9ag67wEBzwF+pUo6TZdm37GtEWizmedbsC3FfabDckiX/nBMwJ8zbsgW++AI++8y8Aubrr80N8Prf/8wiB8wZSZ9+2r6oobllv1Jm3jyzgAQzv59+6jwHFSo45qFhQ5g0yfz+qFHDfL+qVZ2ftiykhZWdCiyR4iTb9dUnmzUj/YUX8PLxMb9EDx0yv3D37DFvmzTJet3+/bB9u7k58+WXZo8XmF+0jz9uFl/2Asx+v2xZc8CO/ZfJwYPmF7n9kjX7rf1+aKh5ng2yTr1A1iWJVqv5Ja7rxq+d/XJN+y+2tDSz6y77pZn225QUs7DOXgSkpnr2/GZcHHzzTdbll9m32Fh49ll47TVz34sXzce5OXUq635QkFkEZC9ust9mn5g2MNAcyGcvkrJPxX55biwW85z01XLHrP8Wi3kJbbNm8PLLZo/WZ5+ZcW3dai4obnfmjFmMXS4gwPxjKntBdNNN5ur1FSuaz9lvy5bNWTiFhl7536IIUYElUtxZLGYR06iRuTlzzz3muAj7VYuxseZpAHvPV5UqWfuePp01r8D+/TmP1axZ1i/q9evhoYdyj+3DD7OeX7rUHDfijLe3eUXRoEHm49Wrzekr7KPf/f3Nv5TDw8337tDhyqdDPCE93fG0lP2U1MWLWSO/wSwgpk3LXFeSxETztJZ9kHPv3uaYHDDz37Wr4wDo7OtMjhplntoBs1C50mC7xx83Bx2DedomMDCr6Kpf37ytUcP8BRoWllUYX4uLF82rZE+ccL6GzUMPwX/+Y+4bH5/1OZ05fjzrfoUK5low9hH19vUl7Vv2hT6DgnLvlbqcl1fOcZCFhcViLgPRuLH5OD0dIynJXL4LzKs+vvnGzId9jpby5XOM1QTMHqhhw65f7IWECiwR+WdVq5rb1ejXzxw7cfZs1nbmTNZt9sKmQoWscRYpKVm39vvZV224Ui9VerrjX8oXL2ZOX5Fp506zSAPH9QTXrDFPEQUEZC10bb8SKzkZoqLM00Jg/kX/9NPO5z6wX+FpH3i7b585rUZamlkA2Qsh+0yfQ4eaxRCYhWbbtrl/vpdfhrFjzfunT2eNs3Mm+8BfwzAnl8pN9nkinF2uabWavYm+vmavhN3hw+Zpn+PHze2nnxyP+9RT8Pbb5v0TJ8yxgfZeSV9fMyf2f+vBg7P2PX8+qyfUmQMHsu5XqmSOpLevv2L/GbVv2eP194dLK4lILry9HWeIrVQp68oQyRMVWCLiWqVKOZ5KupLISHO7GvfcYxYEhmEWVDab+Yvafpu9x6RtW9i6Nev5ixfN0572Ab433ZS176lTZvF1NU6cME9p5qZSpcwCx3L8OLz1Vu773nFH1v3svQI+PlmL2NmLt+zFQqVKWUWefTKrgICs4ij7hQlVq5q9efbn7Kdf7fezF7CVKl39bLS1a5t527fPzOfOneapZfs8Rdln+0xOzupBczYzafaJcytUMAeRZ5963T7mr1Ils1Czs1rh+++vLl4RD1CBJSKFg31SK7srTdkdFGSu25Jdly7O923f3uyBsV9Wby9C7L1S2a/YioiAr75yvhZNcrLDKVYjNBRGjzZjDggwi6HsW/bTsQ0amAVLqVL/vM5MSIjZA3c1/P3Nz+dqFot5uqh8ebMgupKqVc3Cy94zmJKSddrWz8+xMPb1Na96vZJiNxGWFFYqsESkeKtQwZwl/2qEhJg9aVdiLwBq1IBXX72641qtjpenFyU+Pua4LJFipgBN5yoiIiJSNKjAEhEREXExFVgiIiIiLqYCS0RERMTFVGCJiIiIuJgKLBEREREXU4ElIiIi4mIqsERERERcTAWWiIiIiIupwBIRERFxMRVYIiIiIi6mAktERETExYr0Ys+GYQAQHx/vluPbbDYSExOJj4/HarW65T2KK+XWvZRf91Fu3Uv5dR/l1pG9drDXEteqSBdYCQkJAIRqJXcRERHJg4SEBEqXLn3Nr7MYeS3NCoGMjAyOHz9OqVKlsFgsLj9+fHw8oaGhHDlyhKCgIJcfvzhTbt1L+XUf5da9lF/3UW4dGYZBQkICVapUwcvr2kdUFekeLC8vL6pVq+b29wkKCtIPo5sot+6l/LqPcuteyq/7KLdZ8tJzZadB7iIiIiIupgJLRERExMVUYOWDn58f48aNw8/Pz9OhFDnKrXspv+6j3LqX8us+yq1rFelB7iIiIiKeoB4sERERERdTgSUiIiLiYiqwRERERFxMBZaIiIiIi6nA+gfTpk2jZs2a+Pv7ExERwdq1a6+4/+rVq4mIiMDf358bbriBGTNmXKdIC59ryW1MTAx9+vShbt26eHl5MWLEiOsXaCF1Lfn98ssv6dKlCxUqVCAoKIhWrVqxfPny6xht4XItuV23bh1t2rShXLlyBAQEUK9ePd56663rGG3hc63fu3br16/Hx8eHJk2auDfAQuxacrtq1SosFkuO7a+//rqOERdihuRq4cKFhtVqNWbNmmXs3LnTGD58uBEYGGgcOnTI6f779+83SpQoYQwfPtzYuXOnMWvWLMNqtRqff/75dY684LvW3B44cMAYNmyY8f777xtNmjQxhg8ffn0DLmSuNb/Dhw83Jk2aZGzatMnYs2ePMWbMGMNqtRpbt269zpEXfNea261btxoLFiww/vzzT+PAgQPGhx9+aJQoUcJ47733rnPkhcO15tfu/Pnzxg033GBERkYajRs3vj7BFjLXmtuVK1cagLF7924jJiYmc0tLS7vOkRdOKrCuoEWLFsaQIUMc2urVq2eMHj3a6f7PPvusUa9ePYe2xx9/3Lj55pvdFmNhda25za5Dhw4qsP5BfvJrV79+fWPChAmuDq3Qc0Vue/ToYTz00EOuDq1IyGt+e/XqZbzwwgvGuHHjVGDl4lpzay+wzp07dx2iK3p0ijAXqampbNmyhcjISIf2yMhINmzY4PQ1GzduzLH/bbfdxubNm7HZbG6LtbDJS27l6rkivxkZGSQkJFC2bFl3hFhouSK327ZtY8OGDXTo0MEdIRZqec3vvHnz2LdvH+PGjXN3iIVWfn52mzZtSuXKlencuTMrV650Z5hFSpFe7Dk/Tp8+TXp6OiEhIQ7tISEhxMbGOn1NbGys0/3T0tI4ffo0lStXdlu8hUlecitXzxX5/d///sfFixd54IEH3BFioZWf3FarVo1Tp06RlpbG+PHjGTx4sDtDLZTykt+///6b0aNHs3btWnx89CstN3nJbeXKlZk5cyYRERGkpKTw4Ycf0rlzZ1atWkX79u2vR9iFmn4a/4HFYnF4bBhGjrZ/2t9Zu1x7buXa5DW/n3zyCePHj2fx4sVUrFjRXeEVannJ7dq1a7lw4QI///wzo0eP5sYbb6R3797uDLPQutr8pqen06dPHyZMmECdOnWuV3iF2rX87NatW5e6detmPm7VqhVHjhzhjTfeUIF1FVRg5aJ8+fJ4e3vnqOxPnjyZ4y8Au0qVKjnd38fHh3Llyrkt1sImL7mVq5ef/C5atIhBgwbx2Wefceutt7ozzEIpP7mtWbMmADfddBMnTpxg/PjxKrAuc635TUhIYPPmzWzbto2nnnoKME9vG4aBj48PK1asoFOnTtcl9oLOVd+7N998Mx999JGrwyuSNAYrF76+vkRERBAdHe3QHh0dTevWrZ2+plWrVjn2X7FiBc2bN8dqtbot1sImL7mVq5fX/H7yyScMHDiQBQsWcOedd7o7zELJVT+7hmGQkpLi6vAKvWvNb1BQEH/88Qfbt2/P3IYMGULdunXZvn07LVu2vF6hF3iu+tndtm2bhrtcLY8Nry8E7Je0zpkzx9i5c6cxYsQIIzAw0Dh48KBhGIYxevRoo1+/fpn726dpGDlypLFz505jzpw5mqYhF9eaW8MwjG3bthnbtm0zIiIijD59+hjbtm0zduzY4YnwC7xrze+CBQsMHx8f491333W4HPv8+fOe+ggF1rXm9p133jGWLFli7Nmzx9izZ48xd+5cIygoyBg7dqynPkKBlpfvhux0FWHurjW3b731lvHVV18Ze/bsMf78809j9OjRBmB88cUXnvoIhYoKrH/w7rvvGmFhYYavr6/RrFkzY/Xq1ZnPDRgwwOjQoYPD/qtWrTKaNm1q+Pr6GjVq1DCmT59+nSMuPK41t0COLSws7PoGXYhcS347dOjgNL8DBgy4/oEXAteS26lTpxoNGjQwSpQoYQQFBRlNmzY1pk2bZqSnp3sg8sLhWr8bslOBdWXXkttJkyYZtWrVMvz9/Y3g4GCjbdu2xrfffuuBqAsni2FcGoUtIiIiIi6hMVgiIiIiLqYCS0RERMTFVGCJiIiIuJgKLBEREREXU4ElIiIi4mIqsERERERcTAWWiIiIiIupwBIRERFxMRVYIiIiIi6mAktERETExVRgiYiIiLiYCiwRERERF1OBJSIiIuJiKrBEREREXEwFloiIiIiLqcASERERcTEVWCIiIiIu9v/9SQ9AVPyH2QAAAABJRU5ErkJggg==;" vertex="1" parent="1">
          <mxGeometry width="1125" height="750" as="geometry" />
        </mxCell>
        <mxCell id="AK2-ss-QhYlCPNd1e7_Q-9" value="" style="rounded=1;whiteSpace=wrap;html=1;fillColor=none;arcSize=50;" parent="1" vertex="1">
          <mxGeometry x="970" y="590" width="100" height="60" as="geometry" />
        </mxCell>
        <mxCell id="AK2-ss-QhYlCPNd1e7_Q-10" value="" style="endArrow=none;dashed=1;html=1;dashPattern=1 3;strokeWidth=3;rounded=0;entryX=0.25;entryY=1;entryDx=0;entryDy=0;exitX=0;exitY=0.25;exitDx=0;exitDy=0;" parent="1" source="AK2-ss-QhYlCPNd1e7_Q-9" target="AK2-ss-QhYlCPNd1e7_Q-8" edge="1">
          <mxGeometry width="50" height="50" relative="1" as="geometry">
            <mxPoint x="840" y="520" as="sourcePoint" />
            <mxPoint x="890" y="470" as="targetPoint" />
          </mxGeometry>
        </mxCell>
        <mxCell id="AK2-ss-QhYlCPNd1e7_Q-11" value="" style="endArrow=none;dashed=1;html=1;dashPattern=1 3;strokeWidth=3;rounded=0;entryX=1;entryY=0.5;entryDx=0;entryDy=0;exitX=0.25;exitY=0;exitDx=0;exitDy=0;" parent="1" source="AK2-ss-QhYlCPNd1e7_Q-9" target="AK2-ss-QhYlCPNd1e7_Q-8" edge="1">
          <mxGeometry width="50" height="50" relative="1" as="geometry">
            <mxPoint x="300" y="750" as="sourcePoint" />
            <mxPoint x="370" y="542" as="targetPoint" />
          </mxGeometry>
        </mxCell>
        <mxCell id="DMdp0HXCAiK9r9YgIuFt-2" value="" style="shape=image;verticalLabelPosition=bottom;labelBackgroundColor=default;verticalAlign=top;aspect=fixed;imageAspect=0;image=data:image/png,iVBORw0KGgoAAAANSUhEUgAAA7MAAAGQCAYAAAB8uTfeAAAAOXRFWHRTb2Z0d2FyZQBNYXRwbG90bGliIHZlcnNpb24zLjUuMSwgaHR0cHM6Ly9tYXRwbG90bGliLm9yZy/YYfK9AAAACXBIWXMAAA9hAAAPYQGoP6dpAABaNUlEQVR4nO3deZyNdf/H8feZxYxtGPs2ZoYWoshI2UVGpLRLJYRyqyxzV0jdloTwKylLJNpId5uUbZKxRNlVuGmxxUyWMBhmzsy5fn9cnXPmzJwzDoaZ63g9H4/zMHOdz7mu73W+5xrX+3yvxWYYhiEAAAAAACwkqKAbAAAAAADA+SLMAgAAAAAshzALAAAAALAcwiwAAAAAwHIIswAAAAAAyyHMAgAAAAAshzALAAAAALAcwiwAAAAAwHIIswAAAAAAyyHMAgAAAAAshzALAAAAALAcwiwAAAAAwHIIswAAAAAAywkp6AYEMofDoYMHD6pkyZKy2WwF3RwAAAAAuCwMw9DJkydVpUoVBQVdmjFUwuwldPDgQUVFRRV0MwAAAACgQOzfv1/VqlW7JPMmzF5CJUuWlGR2YERERAG35uLY7XYtXbpU8fHxCg0NLejmIJ/Rv4GN/g1s9G9go38DG/0buOhbKTU1VVFRUa5MdCkQZi8h56HFERERARFmixUrpoiIiCt2gwxk9G9go38DG/0b2OjfwEb/Bi761u1Snm7JBaAAAAAAAJZDmAUAAAAAWA5hFgAAAABgOZwzCwAAAPghKytLdrs93+Znt9sVEhKis2fPKisrK9/mi4J3pfRtkSJFLtltd/xBmAUAAADyYBiGUlJSdPz48Xyfb6VKlbR///5LepEcXH5XSt8GBQUpNjZWRYoUKZDlE2YBAACAPDiDbIUKFVSsWLF8CycOh0OnTp1SiRIlCnR0C/nvSuhbh8OhgwcPKjk5WdWrVy+Q0E6YBQAAAHzIyspyBdmyZcvm67wdDocyMjIUHh4esIHnSnWl9G358uV18OBBZWZmFsgtiAL3nQUAAAAukvMc2WLFihVwS4DCx3l4cUGdF0yYBQAAAM4hkM97BC5UQW8XhFkAAAAAlhQTE6OYmJiCbgYKCGEWAAAACHCvvPKKbDabbDabdu7cmS/ztGqQ/O9//6vbb79dFSpUUGhoqMqWLavrrrtOjz76qN577z2P2qSkJNlsNg0fPjzflm+z2dSqVat8m9+VjAtAAQAA5AfDkLKyJIfD/a9hSCVKuGv+/ls6e9Z8Lnuds/aaa9y1v/8u2+HDKr1rl2xlykhBQZ71t94qOQ/x27hR+vPP3PN0/vzQQ5Lz4ixJSdKOHbnb6vz3mWek4sXN2q+/ln74wfs8HQ7pP/+RypUzaz/9VFq40Pd8X39dql7drP3wQ+mDD3zXzpwp1alj1s6eLU2YIPXvL/Xufal6L6AZhqGZM2fKZrPJMAy98847Gj9+fEE3q0A88cQTmjFjhooWLao77rhDsbGxOn36tH7//Xd98cUXSkpKUrdu3Qq6mfATYRYAgMLOMMx/ncHF4ZDS0swd//R0FUlNlQ4dMsOOw2EGkdKlzVq7XfrjD9+hoXx5KTbWXbtqle9AVK2a1LChWZuZKX38sfe6rCxznh06uNdh3Dhzurd2XHWV9Pjj7trnnpPOnPFee/XV0osvumt79jQDorc2X3WVNHWqu/b++6X9+723OTraDGJO8fHS9u3e37MqVcznnJo2ldas8d53ZcpIR496tmH5cu+14eHmejsNGKCQr79WS+/VZh8EB7vf308+8VUpderkDrPvvy/NmuW7tnt3d5hdskR66y3ftf37u8Pshg15z3fYMHeY/eMPaelS37Wpqe6fjx6Vtm0zP+O4IEuXLtXu3bvVu3dvzZ8/X++9955eeeWVArs3aEFZvXq1ZsyYoWrVqmnt2rWqVq2ax/OnT59WUlJSwTQOF4QwCwBXMsPwPprk/Dciwr2zfOKEuYPpK+jUrGnujEvSwYOeoSFnfaNG7rD122/STz/5DkXt2pnhQTJ3aL/7zvsIUVaWGRSuvdas3bxZmjfPd22PHtJNN5m1GzdKb7zh/T3IypKeesoMN5K0fr00eLD3WodD+ve/zVEw53wffdT3qNbgweYomCRt3So1b+691jDMAPfyy2btr79KtWpJkkIltc/ZrwMHSq+9Zv6ckuKq9eqJJ6S33zZ/PnlSatPGd+0jj5gjapIZpLp29V17992eYfaFF8z18SY+3jPMvv222RZvmjb1DLMLF5rr6M2RI56/b9ki/f6799p/rljr8tdf0oED3muzj7RK7i8bvHE4PH8PDja/dPD2r3P7cSpfXkZUlNLS01WsRAnZcr7G4XBvn9dcI91yi+fzOX92atjQ3JZ91WZvR8uW5pcovtrs3I4l6fbbpchI37XO7VgyPx81anhvZ3CwezuWpAcekG680azHBZkxY4YkqVevXipRooRef/11ffnll3rwwQe91v/5558aN26cFi1apP3796tYsWK66qqrdOedd+qll15SUlKSbr31Vld99osAdevWTbNnz9aePXsUGxvr+j2nVq1aacWKFTKybT8ZGRmaPn26Fi5cqG3btiklJUXFihVTgwYNlJCQoDvuuOOi3ofvv/9eknTfffflCrKSVLx4cY9ldO/e3XXY8YgRIzRixAjXc8uXL1erVq104sQJTZ8+XYsWLdKuXbt06NAhlSpVSrfccouefvpptW3b1vWa2bNnq0ePHpKkFStWeLxvw4YN8ziU+ccff9T48eO1evVq/f3336pYsaI6dOigYcOGqUr2bUnSb7/9prFjx2r58uU6cOCAihYtqkqVKqlFixYaPXp0vt9SqjAhzAK4dJwhSZJCsv25OXHC9whNaKjnDs/OnVJGhvfaokXNHRyn1aulU6e8B5fixaX22Xb5v/rK3NH1FkiKFZN69XLXvveetG+f99oiRdwBQ5ImTfI9mhMUZI6IOI0enffhe99+637fXnxRWrTIe9hzOMzQFBFh1j73nBk4/nkuJCtLHTIyFGKzmbW//eZ+jwcMMNvsy65d5kiYJL36qjRmjO/aLVukevXMn999V3rpJd+1q1eboUSSFiyQEhJ81y5d6m7v999L/fr5rq1Tx70TvH272WZfmjVzh9n9+81DHn3JvgN17JgZqH3JHqzOnpX+9z/ftdlHnwzDd4CTPIOgr3sWOoNA9qtLhoS4A4a30BAZ6a4NDTXfQ18hx/lZcM43Pj53jfPfRo0829ajh7mO3mpzhu1Bg8zt3lubc+6Ajh1rvs/e5lumjGft22+bI5/e1i/nbVfmzJHS072Hspz3UvzqK7N/zhUiJSkx0XvfefPuu8q02/XtwoXq0KFD3vdwfPllz79Feenb13z44/77zYc/WrUyH/644Qbz4Y/q1d0jujhvf/31l7766ivVrl1bjRo1UtGiRfX6669r+vTpXsPshg0b1K5dO/39999q2bKl7r33Xp0+fVrbt2/X8OHD9dJLLykmJkbDhg3TxIkTJUkDBgxwvb5+/foX3Na///5b/fv3V5MmTdS2bVuVL19eycnJmj9/vjp27Ki3335bTzzxxAXPv3z58pKkXbt2+VV/9913S5Lee+89tWzZ0uM8V+e5wjt27NDQoUPVokUL3XHHHYqMjNTevXs1f/58LVq0SF9++aU6duwoyXxvhg0bphEjRig6Olrdu3d3zS/7vGfNmqXevXsrPDxcd911l6pVq6Zff/1V77zzjhYsWKAffvhB1f/ZJg4ePKhGjRrp5MmT6tChg+6//36dPXtWu3fv1ocffqhnnnmGMAsUSg6HOTLga9SlRAn3t8tpaea37L5qq1Z1HyZ1/Lg5+uNr9KlWLfcheUePSsuW+Q4YcXHusHX4sPTRR76DS9Om7hGRI0fch+R5m++tt7pHfo4dk55+2ndt27bmYWCSGfQ6dsxVE5yVpZbHjino++/N5UrmKMV11/l+H+LjPXf+IyPNHcrs83a67TbPHbiYGPN99qZxY8/D9Vq3Nkf5vKlXzwxQTo8/bo5YeVOzphninP7zH3MkzJvKlT3D7IwZZojyJiLCcwfy669976wGB3uG2fXrzSDnS1aWO8zu3i1t2uS7NjPT/XNqqkegsskcvXPJPlJ0rhu5Z68NDTXDu69Rl+wBqkwZczvxVhsUZH4R4VStmvn591YXHCxl/0/4qqukBx/0HRqy7/DWqmWGdV8jYXXrumvr1pXGj/dd26yZu/aGG8yg4yvwXXed53yTkrzXBQebnzWn2rXNz6+v9zd72KpZ0/y7FhQku8OhhYsXq0PHjt7DTuXK5mG4/ihZUvrlF/9qQ0LMQ1D99c/IkF+GDvW/9nzObctr1Dkn5/ma/nD+/wEUQrNmzZLdbnedB3r99dfrxhtv1Hfffac//vhDNbKNeGdkZOiBBx7Q33//rTlz5qhLly4e89q/f78kM8gNHz7cNeKaXxdHcgbBnKOmx44dU9OmTTV48GB17dpVRbP/H3Iebr/9dpUuXVqLFi3SnXfeqQcffFA33XSTrrnmGgV5+f/w7rvvVunSpfXee++pVatWXtezdu3aOnjwoMrl+Duwe/du3XLLLXr22Wc9wmz9+vU1YsQI13uY065du/Tkk0+qRo0aWrFihSpn+3/iu+++U9u2bdWvXz99+eWXkqRPP/1Ux44d0+uvv+7xpYJkHjbtbb0CCWH2cti82dxxyxkKmjd370hu3WpeuMFX0Ln3XikszKxdvTrvCzc88YR7hGbJEmntWt+1gwdLFSuatfPnmzviXmqDMzNVLNthEvrkE/OCDL6CzuTJ7hGauXPN0RFfh+/Nnm0exiSZO4j9+/uunTdPuuces3bePOnhh32/7x98YB7eJ5kjXJ06+a6dNk168knz5w0bzADoy//9n3sUadcuqXNn37UjR7rDbHKyeeifL4MGuXe0Tpwwd6x9CQtzh9mzZ833zZcKFdw/OxzSihW5SoIklZbk2LMn28Qgz/CXU84weuaMOYrhTc7D7LL/Yc15+FrO83fKlzf73p8RmuuuM7/E8BYaqlb1rG3Rwny9t9CQfaRKku66y9yx9Vab8z/Url3N4OPPCE3fvuaIn68Ql300+7nnzM+zr1BUsqS79sUXzcNi/3nOnpWlFatWqWXr1goNC5MqVXLXvvyyWe9r1C57G0aMMB/+OJ+RnwceMB/+aN3afPgjLs58+OOqq6Rnn/WvtlIlKccOnk+lSrn/vp1LWJjZDn9k/0LAbj/3lxIArkjOiz0FBwera7bTAnr06KF+/frpnXfe0ejRo13TFyxYoD179uiuu+7KFWQlKSoq6pK2NywszOvhv5GRkerZs6eeffZZrV+/Xi1atLig+VepUkVffvmlevXqpa+//lpff/21JKlkyZJq1qyZHnvsMT344IPnFQBLlSrldXp0dLQ6deqkGTNmaN++fa6R1HOZOnWq7Ha7Jk6c6BFkJal169a666679NVXXyk1NVURERGuQ5WL5Ty6ROZh04GOMHs5+Drk5swZ98jhhAnu85C8OXzYHWY//NB9fpM3Dz7oDrNLl7rPm/LmiSfcYXbjRumdd7yWBUkKbdzYPWH3bvOQR1+yB50jR3yPgEnm6IJTenruc5yy8+cwO2+1oaHmjp+vUZfs5wcVL27uUPoKGNnDYenS5o6qP4fkRUaaO8C+Rl1uvtlzvs8+67vWeWikZPb166/7HgHLfmXMYsXMLyJytDPT4dC6TZt0U8eO7vt1BQWZX5z4OoQw5x/v//3Pd23OgJqc7H7uXDfbzj7yei7/fEvpl7wOrc3p+ef9r83rHMKc8vrSJKf69c2HP6KizIeT3a7Tv/9unm+Wc+SuRInc5/8BALzq3dv/gxf8Y1NWVgkFB5/j/8Js6tb1/0CH7777Tr///rtuv/12j/MsH374YT377LOaNWuWRo4cqZB/vrj84YcfJEnts5+Wc5lt27ZN48eP18qVK5WcnKyzZ896PH/A17nsfmrZsqV27typ77//XitWrNDmzZv1/fffa9GiRVq0aJFmz56tr7766rwujvX999/rjTfe0Nq1a3Xo0CFlZGTkarO/YXbt2rWSzFsCrVu3Ltfzhw4dksPh0K+//qq4uDjdddddeuGFF/TUU08pMTFRbdu2VdOmTXXdddd5nJMbqAizl0OVKuboRs4d/OwXjKhRw7wgg6/w4rzAg2Tu0Hbq5N+haE2bus8l8ha4sp9P1KaNGeq81GZJOpv9Ig8dOpgh2J/D7Dp1Mg/38xV0sl/k4e67zfOsfI1qZT/c8O67zUPnfAXU7GG3fXvP0JyXxo19H6qaU+3a5iGE/oiKynsENbuyZfMemc2ueHHzUEp/hIR4HQEz7HYdNgz3aLpkhkznOY3+OJ/7zF1hV08EAASGX34xL3WQf2y6lLvj06dPlySPczMlqWzZsrrzzjv12WefacGCBbrnn6Pejv8zGFE159FMl8kPP/yg1q1bKzMzU23atNFdd92liIgIBQUFacuWLZo/f77SfR0Fdh6CgoLUvHlzNW/eXJI5gp2YmKhu3bppyZIlmjp1qvo7T9E6hy+++EL333+/wsPD1bZtW9WsWVPFixeXzWbTsmXL9P33359Xm4/+c/Xzc9066dSpU5LMEeB169Zp+PDhWrx4sT799FNJ5ij6888/r6efftrvZVsRYfZy2LHDPVLqy/kcvtenj/nwx733mg9/tGzp83A4h92u9Oy3LLj+evPhj/O5cENkZO5DPH0JC3OPVgMAAMDl8OHDrvMqH3roIT3kPD0ph+nTp7vCbOl/Bi4udvRTkutQ3czs13TI5riXa2eMGjVKZ86ccV0pOLsxY8Zo/vz5F90ub2w2m+Lj4zVq1Cj16tVLy5Yt8zvMvvTSSypSpIg2bNig2rVru6Y7HA7t3bvXdQVlfzkPWz5x4oQizpUf/lG7dm3NmzdPmZmZ2rp1q7799lu9+eabeuaZZ1S8eHHXFZQDEWEWAAAACDDvvfeeMjIyFBcX5/MKw/Pnz9fSpUu1d+9eRUdH65ZbbpEkLVmyRH38GDgJDg7OdUitU+Q/gxPOi0Zll5qa6vWKwr/99pvKlCmTK8hK5q1sLrWS/1x/IvvtgoL/OToyy8etxX777TfVqVPHI8hKZpj98ccfvb4mKCjI5/xuueUWbdy4UatWrTrvWxGFhIQoLi5OcXFxatKkiVq0aKEvvvgioMMsV4wAAAAAAsw7/1wHZcqUKXrnnXe8Pnr16iWHw6GZM2dKku68807FxMToyy+/1CeffJJrnjlHbMuWLavDhw/nOq9VMoNh7dq19f3332v79u2u6VlZWUpISNCZM2dyvSYmJkZ///23fvrpJ4/pM2fO1JLzuXq6D4sXL9bnn38ue877Sss8bNd5q6HsF5hy3tbGWyh3tvnXX3/1eG8Mw9DIkSP1Px+3ZitbtqzP+T399NMKDQ3VwIEDvQb+jIwMrVq1yvX7unXr9Ndff+Wqc04Lz3n/6gBjiZHZKVOmaPz48UpOTladOnU0ceJE1zHu3qxYsUIJCQnatm2bqlSpoueff97j26UZM2bo/fff1y//nMEfFxen0aNHq1HOe+L9Y8yYMXrhhRfUv39/14ccAAAAV5bsd/TKH4aysrL+Gf3z72I9/rQhKSlJO3fu1PXXX+9z/1aSevXqpVdffVXvvvuuhg0bpiJFiui///2v4uPj1blzZ02bNk2NGjXSmTNntGPHDn333Xcehw23adNG69evV/v27dW8eXMVKVJE9erV05133ilJGjRokLp3766mTZvqgQceUHh4uJYvXy673a569eppa44LhA4YMEBLlixRs2bN9OCDD6pUqVLasGGDVq9erfvvv991PuiF+t///qeBAwcqMjJSzZs319VXX62QkBD9+eef+uabb3T8+HHdfPPNHueZXnvttapatao+/vhjhYaGqnr16rLZbOratauio6M1cOBA9enTRw0aNNB9992n0NBQV4C//fbbtXjx4lztaNOmjT7++GN16tRJN954o0JCQtSiRQu1aNFCtWrV0rvvvqvHH39cderU0e23365rrrlGdrtd+/bt06pVq1S+fHlXUJ4zZ44mT56sli1b6qqrrlJkZKR+//13LViwQGFhYX4fLm1ZRiH38ccfG6GhocaMGTOM7du3G/379zeKFy9u7N2712v9H3/8YRQrVszo37+/sX37dmPGjBlGaGio8emnn7pqHn74YWPy5MnG5s2bjR07dhg9evQwSpUqZfz555+55rdu3TojJibGuOGGG4z+/fufV9tPnDhhSDJOnDhxXq8rjDIyMowvv/zSyMjIKOim4BKgfwMb/RvY6N/ARv8WvDNnzhjbt283zpw5k+/zzsrKMo4dO2ZkZWXl63wffvhhQ5LxxhtvnLP21ltvNSQZX331lWva3r17jX/9619GTEyMERoaapQpU8Zo1KiRMWrUKI/Xnjp1yujTp49RtWpVIzg42JBkdOvWzaPm3XffNa677jqjSJEiRsWKFY0nnnjCOHLkiNGyZUvDWxRZsGCBcfPNNxslSpQwSpUqZbRt29ZYsWKFMWvWLEOSMWvWLI/66OhoIzo62q/35fDhw8bMmTONhx56yKhdu7ZRunRpIyQkxChXrpzRqlUrY/LkyUZ6enqu161bt85o3bq1ERERYdhsNkOSsXz5ctfzs2bNMurVq2cUK1bMKFu2rHH33XcbW7ZsMQYNGpSr1jAM46+//jK6dOliVKhQwQgKCjIkGcOGDfOo+emnn4xu3boZ1atXN4oUKWJERkYaderUMZ544glj2bJlrroffvjB6NOnj3HDDTcYkZGRRnh4uFGzZk2je/fuxs8//+zX+3Ix8to+LkcWshlG9kvqFj4333yzGjRooKlTp7qm1a5dW3fffbfGjBmTq37QoEH66quvtGPHDte0Pn36aOvWra5LXeeUlZWlyMhIvfXWW3rsscdc00+dOqUGDRpoypQpGjVqlOrXr39eI7OpqakqVarUeZ3AXVjZ7XYtXLhQHTp0UGjOW3vA8ujfwEb/Bjb6N7DRvwXv7Nmz2r17t2JjY/P9kE2Hw+G6X+j53NsUhd+V0rd5bR+XIwsV6nc2IyNDGzduVHx8vMf0+Ph4rVmzxutr1q5dm6u+Xbt22rBhg9fj4yUpLS1NdrtdZbLfpkbSU089pTvuuEO33XbbRawFAAAAACC/FepzZo8cOaKsrCxVrFjRY3rFihWVkpLi9TUpKSle6zMzM3XkyBFVrlw512sGDx6sqlWreoTWjz/+WJs2bdL69ev9bm96errHfaRSU1Mlmd+q+grSVuFsv9XXA97Rv4GN/g1s9G9go38Lnt1ul2EYcjgccjgc+Tpv5wGSzvkjcFwpfetwOGQYhux2u+vKz06X4+9WoQ6zTjab5wnxhmHkmnauem/TJWncuHGaO3eukpKSXEPj+/fvV//+/bV06dLzOpxkzJgxGuHlXrFLly5VsWLF/J5PYZaYmFjQTcAlRP8GNvo3sNG/gY3+LTghISGqVKmSTp065fM2NBfr5MmTl2S+KHiB3rcZGRk6c+aMVq5cmeuewmlpaZd8+YU6zJYrV07BwcG5RmEPHTqUa/TVqVKlSl7rQ0JCXJfWdpowYYJGjx6tb7/9VjfccINr+saNG3Xo0CHFxcW5pmVlZWnlypV66623lJ6enuubB0kaMmSIEhISXL+npqYqKipK8fHxAXHObGJiotq2bcs5OwGI/g1s9G9go38DG/1b8M6ePav9+/erRIkS+X7OrGEYOnnypEqWLJnnQA2s50rp27Nnz6po0aJq0aKF13NmL7VCHWaLFCmiuLg4JSYm6p577nFNT0xMVKdOnby+pnHjxlqwYIHHtKVLl6phw4Ye/wmMHz9eo0aN0pIlS9SwYUOP+jZt2ujnn3/2mNajRw/VqlVLgwYN8hpkJSksLExhYWG5poeGhgbMf0CBtC7Ijf4NbPRvYKN/Axv9W3CysrJks9kUFBSU7xfycR5+6pw/AseV0rdBQUGy2Wxe/0Zdjr9ZhTrMSlJCQoK6du2qhg0bqnHjxpo+fbr27dvnum/skCFDdODAAb3//vuSzCsXv/XWW0pISFDv3r21du1azZw5U3PnznXNc9y4cXrppZc0Z84cxcTEuEZyS5QooRIlSqhkyZKqm+MmXsWLF1fZsmVzTQcAAAAAXH6FPsx27txZR48e1ciRI5WcnKy6detq4cKFio6OliQlJydr3759rvrY2FgtXLhQAwcO1OTJk1WlShVNmjRJ9913n6tmypQpysjI0P333++xrGHDhmn48OGXZb0AAAAAABeu0IdZSerbt6/69u3r9bnZs2fnmtayZUtt2rTJ5/z27Nlz3m1ISko679cAAAAAAC6NwD2AGwAAAAAQsAizAAAAAADLIcwCAAAA8JvNZlOrVq0KuhkBr1WrVgF9W5/8QJgFAAAAAojNZjuvh7dr0BRWs2fP9roOJUuWVIMGDTR69GilpaUVdDNxmVjiAlAAAAAA/DNs2LBc0yZOnKgTJ06of//+Kl26tMdz9evXvzwNy0f16tXT3XffLcm8p2tKSooWLFigoUOHavHixVq+fLmCg4MLtpG45AizAAAAQADxdqvJ2bNn68SJExowYIBiYmIue5vyW/369XOt5/Hjx3X99ddr1apVWrVqFYdCXwE4zBgAAAC4QsXExPgMt8OHD5fNZvN5i8qDBw+qa9euqlChgooWLaq4uDjNmTPH57KWLFmiDh06qFy5cgoLC1PNmjX13HPP6fjx4xe/IpJKly6tRo0aSZIOHz6c6/ldu3apa9euqlKliooUKaIqVaqoa9eu2rVrV67a7t27y2azeb2lZ1JSkmw2W64w7TzHNTMzU2PGjFFcXJyKFi2qqKgoPffcc0pPT/fa7o8//thVW6FCBXXt2lUHDx70WpuRkaG33npLHTp0UHR0tMLCwhQZGak2bdrom2++8foaZx87R+ajo6MVGhqq4cOHa/DgwbLZbHr//fe9vnbjxo2y2Wy68847vT5f0BiZBQAAAHBejh07pqZNm6pUqVLq0aOHjh8/rk8++USPPPKIDhw4oOeee86jfuTIkRo2bJjKli2rO+64QxUqVNBPP/2kCRMmaOHChVqzZo1KlSp1UW06ceKE1q9fr+DgYDVo0MDjuR9//FFt27bVqVOn1KlTJ9WuXVs7duzQRx99pPnz5ysxMVE333zzRS3f6eGHH9aqVavUpk0blS1bVosWLdKECRN06NAhvffeex61r7/+uhISElS6dGk99thjKl26tJYsWaImTZp4fT/+/vtv9e/fX02aNFHbtm1Vvnx5JScna/78+erYsaPefvttPfHEE7lel56ertatW+vYsWNq166dSpQooZiYGLVq1Urjx4/X22+/rcceeyzX66ZNmyZJevLJJ/PlvclvhFkAAAAA5+Wnn37SAw88oI8//lhBQebBnoMHD1ZcXJyGDh2q++67TzVq1JAkLV++XMOGDVPTpk31zTffeIS02bNnq0ePHho2bJgmTpzo9/K3bNniGhl1OBz666+/9PXXXys1NVVvvfWWatas6ap1OBzq1q2bTp48qY8//lidO3d2PTd37lw9/PDDeuyxx7Rjxw7XulyM33//XT///LNCQkIUERGh0aNHq169evrwww81duxYVa5cWZK0Z88eDR48WJGRkdq0aZNrhHzMmDF64IEH9Pnnn+ead2RkpPbu3atq1ap5THd+uTB48GB17dpVRYsW9Xg+JSVFderU0cqVK1W8eHGP59q3b69vvvlGv/zyi+rWreuafvLkSc2dO1dRUVFq3779Rb8vlwKHGQMAAAA4L8HBwXr11Vc9wl9sbKz69esnu92uDz74wDV90qRJkqTp06fnGm3s3r276tevn+fhyd5s3bpVI0aM0IgRI/Tyyy9r+vTpOnjwoDp27KgWLVp41K5Zs0Y7d+5U06ZNPYKsJHXp0kVNmjTRrl27tHr16vNqgy/jxo1TmTJlXL8XL15cjzzyiBwOhzZu3Oia/tFHHykjI0PPPPOMx6HeQUFBGj9+vNdgHRYWlivISmbI7dmzp44dO6b169d7bdeECRNyBVlJ6tu3rySzf7L78MMPdfr0afXu3bvQXkyLkVkAAADgfDVufNGzsEkqkZUlW3Cw9NBDUv/+F9+uy6R69eqKjY3NNb1Vq1YaMWKENm/e7Jq2du1ahYaG6pNPPvE6r4yMDB0+fFhHjx5V2bJl/Vp+t27dPG4p9Ndff+nbb79V//799c033ygpKcl1qLGzLbfeeqvXed12221as2aNNm3alCsIX4iGDRvmmhYVFSXJHEF12rRpkySpZcuWuepr1KihqKgo7d27N9dz27Zt0/jx47Vy5UolJyfr7NmzHs8fOHAg12vCwsJUr149r+29/fbbFRsbqw8++ECvvvqqa1T37bffVkhIiHr27OlrVQscYRYAAAA4Xz/8cNGzsCnbzng+hOPLqWLFil6nV6pUSZJ5/qrT0aNHlZmZqREjRuQ5z1OnTvkdZr2155FHHtGZM2fUu3dvDRkyREuWLPFoi7NtOTkP+83e5otRqlQpORwOj2khIWZPZ2VluaY5l5fXe5kzzP7www9q3bq1MjMz1aZNG911112KiIhQUFCQtmzZovnz53u90FTFihVls9m8LicoKEhPPvmkBg8erE8++UTdunXTjz/+qK1bt+qee+5RlSpV/F/5y4wwCwAAAFyhgoKClJGR4fW5vK4y/Ndff3mdnpKSIkkehxM7w93ff/994Q31k/MiTuvWrfNYfva25ZScnOxRJ8l1iG9mZmau+vy6+rJzeX/99Zfq1KmT63lv7R01apTOnDmj5cuX57r10JgxYzR//nyvy/IVZJ169uypYcOG6e2331a3bt309ttvSyq8F35y4pxZAAAA4AoVGRmpv/76S3a7PddzGzZs8Pm6ffv2+bxtjSTdeOONrmm33HKLjh07pm3btl10e8/FeRhv9pFRZ1t83WLIOT37FZAjIyMlSfv3789Vn9f7cj6cy1uxYkWu5/744w+vy/7tt99UpkwZr/fQ9TYff5UrV04PPPCA1q5dq9WrV2vevHmKjY1VfHz8Bc/zciDMAgAAAFeom2++WZmZmZo1a5bH9NmzZ+v777/3+bqsrCwNGjTIIzTu3r1bkyZNUkhIiB599FHX9IEDB0qSevfu7fX+qadPn9YP+XDYdlZWlt544w1J8gh7TZs21bXXXqvVq1fr008/9XjNp59+qpUrV+qaa65Rs2bNXNOdI7wzZszwqP/5559dy7hYjzzyiEJDQ/Xmm296fDHgcDj03HPP5TpUWTLvGfv333/rp59+8pg+c+ZM12HVF8p5IagHH3xQaWlpeuKJJ845olvQOMwYAAAAOF+33HLRszBkBrDg4GDZoqMvvk0XoF+/fpo1a5b+9a9/admyZYqKitLWrVu1Zs0adezYUV9//bXX191www1at26d4uLiFB8frxMnTmjevHk6fvy4xo0b53FrnDZt2mjs2LEaMmSIrr76anXo0EGxsbE6deqU9u7dqxUrVqhZs2ZavHix3+3OfmseSTp06JC+++477dy5U+XKldO4ceNcz9lsNr333ntq27atOnfurE6dOqlWrVrauXOnvvzyS5UsWVLvv/++x9WDO3XqpGuvvVZz587Vn3/+qZtvvln79u3T/Pnz1alTJ58XszofMTExGjt2rP7973/rxhtvVOfOnVWqVCktWbJEx48f1w033JArtA4YMEBLlixRs2bN9OCDD6pUqVLasGGDVq9erfvvvz9XWD8fjRs3Vv369bVlyxaFhoaqR48eF7uKlxxhFgAAADhfa9de9CwMh0OnUlMVEREhWz7c3/RC1KpVS8uWLdOQIUO0YMEChYSEqHnz5lq7dq0+//xzn2E2MjJSixYt0vPPP69Zs2YpNTVV1113nZ599lk9/PDDueoHDRqkpk2batKkSVq9erXmz5+vUqVKqWrVqnriiSe8viYvW7du1datW12/h4eHKyYmRv3799fzzz+f66JFN998s9avX69Ro0bp22+/1YIFC1SuXDl16dJFL730kq699lqP+rCwMC1btkz//ve/tXTpUq1fv15169bVnDlzVKZMmXwJs5KUkJCgypUra/z48Zo9e7ZKliypdu3aady4cV7fk9tvv10LFizQqFGjNG/ePAUHB6tRo0Zavny5/vjjj4sKs5LUo0cP9e/fX/fcc4/PC1MVJjbDMIyCbkSgSk1NValSpXTixAlFREQUdHMuit1u18KFC9WhQweFhoYWdHOQz+jfwEb/Bjb6N7DRvwXv7Nmz2r17t2JjYxUeHp6v83Y4HEr9J8x6u6corMuqffvYY4/pgw8+0LJly9S6detz1ue1fVyOLGSddxYAAAAAcEns3btX8+bN03XXXedXkC0MOMwYAAAAAK5QH3zwgXbu3Kl58+YpIyNDo0aNKugm+Y0wCwAAAABXqJkzZ2rlypWKiorSpEmTdM899xR0k/xGmAUAAACAK5Sv++9aAefMAgAAAAAshzALAAAAALAcwiwAAABwDtzNEsitoLcLwiwAAADgg/P+vmlpaQXcEqDwycjIkCQFBwcXyPK5ABQAAADgQ3BwsEqXLq1Dhw5JkooVKyabzZYv83Y4HMrIyNDZs2cVFMQYUyC5EvrW4XDo8OHDKlasmEJCCiZWEmYBAACAPFSqVEmSXIE2vxiGoTNnzqho0aL5FpBROFwpfRsUFKTq1asX2DoSZgEAAIA82Gw2Va5cWRUqVJDdbs+3+drtdq1cuVItWrRwHc6MwHCl9G2RIkUKdOSZMAsAAAD4ITg4OF/PDQwODlZmZqbCw8MDOvBciejbyyMwD+AGAAAAAAQ0wiwAAAAAwHIIswAAAAAAyyHMAgAAAAAshzALAAAAALAcwiwAAAAAwHIIswAAAAAAyyHMAgAAAAAshzALAAAAALAcwiwAAAAAwHIIswAAAAAAyyHMAgAAAAAshzALAAAAALAcwiwAAAAAwHIIswAAAAAAyyHMAgAAAAAshzALAAAAALAcwiwAAAAAwHIIswAAAAAAyyHMAgAAAAAshzALAAAAALAcwiwAAAAAwHIIswAAAAAAyyHMAgAAAAAshzALAAAAALAcwiwAAAAAwHIIswAAAAAAyyHMAgAAAAAshzALAAAAALAcwiwAAAAAwHIIswAAAAAAyyHMAgAAAAAshzALAAAAALAcwiwAAAAAwHIsEWanTJmi2NhYhYeHKy4uTqtWrcqzfsWKFYqLi1N4eLhq1KihadOmeTw/Y8YMNW/eXJGRkYqMjNRtt92mdevWedSMGTNGN910k0qWLKkKFSro7rvv1s6dO/N93QAAAAAA56/Qh9l58+ZpwIABGjp0qDZv3qzmzZurffv22rdvn9f63bt3q0OHDmrevLk2b96sF154Qf369dNnn33mqklKSlKXLl20fPlyrV27VtWrV1d8fLwOHDjgqlmxYoWeeuop/fDDD0pMTFRmZqbi4+N1+vTpS77OAAAAAIC8hRR0A87ltddeU8+ePdWrVy9J0sSJE7VkyRJNnTpVY8aMyVU/bdo0Va9eXRMnTpQk1a5dWxs2bNCECRN03333SZI++ugjj9fMmDFDn376qZYtW6bHHntMkrR48WKPmlmzZqlChQrauHGjWrRokd+rCQAAAAA4D4V6ZDYjI0MbN25UfHy8x/T4+HitWbPG62vWrl2bq75du3basGGD7Ha719ekpaXJbrerTJkyPtty4sQJScqzBgAAAABweRTqkdkjR44oKytLFStW9JhesWJFpaSkeH1NSkqK1/rMzEwdOXJElStXzvWawYMHq2rVqrrtttu8ztMwDCUkJKhZs2aqW7euz/amp6crPT3d9XtqaqokyW63+wzSVuFsv9XXA97Rv4GN/g1s9G9go38DG/0buOjby7PuhTrMOtlsNo/fDcPINe1c9d6mS9K4ceM0d+5cJSUlKTw83Ov8nn76af30009avXp1nu0cM2aMRowYkWv60qVLVaxYsTxfaxWJiYkF3QRcQvRvYKN/Axv9G9jo38BG/wauK7lv09LSLvkyCnWYLVeunIKDg3ONwh46dCjX6KtTpUqVvNaHhISobNmyHtMnTJig0aNH69tvv9UNN9zgdX7PPPOMvvrqK61cuVLVqlXLs71DhgxRQkKC6/fU1FRFRUUpPj5eEREReb62sLPb7UpMTFTbtm0VGhpa0M1BPqN/Axv9G9jo38BG/wY2+jdw0bfuo1QvpUIdZosUKaK4uDglJibqnnvucU1PTExUp06dvL6mcePGWrBggce0pUuXqmHDhh4fpPHjx2vUqFFasmSJGjZsmGs+hmHomWee0RdffKGkpCTFxsaes71hYWEKCwvLNT00NDRgPsSBtC7Ijf4NbPRvYKN/Axv9G9jo38B1Jfft5VjvQn0BKElKSEjQO++8o3fffVc7duzQwIEDtW/fPvXp00eSORrqvAKxJPXp00d79+5VQkKCduzYoXfffVczZ87Us88+66oZN26cXnzxRb377ruKiYlRSkqKUlJSdOrUKVfNU089pQ8//FBz5sxRyZIlXTVnzpy5fCsPAAAAAPCqUI/MSlLnzp119OhRjRw5UsnJyapbt64WLlyo6OhoSVJycrLHPWdjY2O1cOFCDRw4UJMnT1aVKlU0adIk1215JGnKlCnKyMjQ/fff77GsYcOGafjw4ZKkqVOnSpJatWrlUTNr1ix17949/1cUAAAAAOC3Qh9mJalv377q27ev1+dmz56da1rLli21adMmn/Pbs2fPOZfpvGgUAAAAAKDwKfSHGQMAAAAAkBNhFgAAAABgOYRZAAAAAIDlEGYBAAAAAJZDmAUAAAAAWA5hFgAAAABgOYRZAAAAAIDlEGYBAAAAAJZDmAUAAAAAWA5hFgAAAABgOYRZAAAAAIDlEGYBAAAAAJZDmAUAAAAAWA5hFgAAAABgOYRZAAAAAIDlEGYBAAAAAJZDmAUAAAAAWA5hFgAAAABgOYRZAAAAAIDlEGYBAAAAAJZDmAUAAAAAWA5hFgAAAABgOYRZAAAAAIDlEGYBAAAAAJZDmAUAAAAAWA5hFgAAAABgOYRZAAAAAIDlEGYBAAAAAJZDmAUAAAAAWA5hFgAAAABgOYRZAAAAAIDlEGYBAAAAAJZDmAUAAAAAWA5hFgAAAABgOYRZAAAAAIDlEGYBAAAAAJZDmAUAAAAAWA5hFgAAAABgOYRZAAAAAIDlEGYBAAAAAJZDmAUAAAAAWA5hFgAAAABgOYRZAAAAAIDlEGYBAAAAAJZDmAUAAAAAWA5hFgAAAABgOYRZAAAAAIDlEGYBAAAAAJZDmAUAAAAAWA5hFgAAAABgOYRZAAAAAIDlEGYBAAAAAJYTUtANAAAAsArDkBwOKSvL/Nf5yPl7ftVkZNj000/lFBZmU1DQpV2WFWqeeELq16+gPwUACgvCLAAAl9i5dtAvZuc/I8OmXbsiVaaMGXYKexixes3lFyKpaUEsuFD666+CbgGAwoQwCwCFkGH4HgE63x3y9HRp796S2rpVCg4unAEh0GsurRBJLS71QnCebDYpKMjc5oKC3I+cv5+rxmYzlJZ2UqVKlVRwsO2C5xMoNdHRBd2zAAoTwiwQQJzh53x3ttPTpZSUYvrtN3fYKeid/yu9xjDy85MRKql1fs4Ql8i5dvS97/wbOns2TSVKFFNQkK3Qh5ErocZmMx/5wW7P1MKFy9WhQweFhobmz0wBIEAQZuERgHztWKenS8ePhyk52fyPuqB39M+3pqCXf7lqLjwAhUpqm4+fKlxO597ZNmS3p6to0TCPkZ3CtPNPzYUHIDPsfEvYAQBccQizl0GPHr5HuwpDEPJPqKTbL+G7hMvNc0fakGFkqUiRYDlHdgp6x54a/2r8CT9m2FlC2AEAAAGFMHsZfP55Qbcgf9hsxj870RzGZvWanAHIDDsLCTsAAACwDMLsZfDqq1Lx4oUz1Phbk5Vl16JFhB0AAAAAhQNh9jLo00eKiCjoVlwch6OgWwAAAAAAbkEF3QAAAAAAAM4XYRYAAAAAYDmEWQAAAACA5RBmAQAAAACWY4kwO2XKFMXGxio8PFxxcXFatWpVnvUrVqxQXFycwsPDVaNGDU2bNs3j+RkzZqh58+aKjIxUZGSkbrvtNq1bt+6ilwsAAAAAuDwKfZidN2+eBgwYoKFDh2rz5s1q3ry52rdvr3379nmt3717tzp06KDmzZtr8+bNeuGFF9SvXz999tlnrpqkpCR16dJFy5cv19q1a1W9enXFx8frwIEDF7xcAAAAAMDlU+jD7GuvvaaePXuqV69eql27tiZOnKioqChNnTrVa/20adNUvXp1TZw4UbVr11avXr30+OOPa8KECa6ajz76SH379lX9+vVVq1YtzZgxQw6HQ8uWLbvg5QIAAAAALp9CfZ/ZjIwMbdy4UYMHD/aYHh8frzVr1nh9zdq1axUfH+8xrV27dpo5c6bsdrtCQ0NzvSYtLU12u11lypS54OVKUnp6utLT012/p6amSpLsdrvsdnsea1r4Odtv9fWAd/RvYKN/Axv9G9jo38BG/wYu+vbyrHuhDrNHjhxRVlaWKlas6DG9YsWKSklJ8fqalJQUr/WZmZk6cuSIKleunOs1gwcPVtWqVXXbbbdd8HIlacyYMRoxYkSu6UuXLlWxYsV8vs5KEhMTC7oJuITo38BG/wY2+jew0b+Bjf4NXFdy36alpV3yZRTqMOtks9k8fjcMI9e0c9V7my5J48aN09y5c5WUlKTw8PCLWu6QIUOUkJDg+j01NVVRUVGKj49XRESEz9dZgd1uV2Jiotq2bet1dBvWRv8GNvo3sNG/gY3+DWz0b+Cib91HqV5KhTrMlitXTsHBwblGQw8dOpRr1NSpUqVKXutDQkJUtmxZj+kTJkzQ6NGj9e233+qGG264qOVKUlhYmMLCwnJNDw0NDZgPcSCtC3KjfwMb/RvY6N/ARv8GNvo3cF3JfXs51rtQXwCqSJEiiouLyzU8n5iYqCZNmnh9TePGjXPVL126VA0bNvR4Q8ePH6+XX35ZixcvVsOGDS96uQAAAACAy6dQj8xKUkJCgrp27aqGDRuqcePGmj59uvbt26c+ffpIMg/tPXDggN5//31JUp8+ffTWW28pISFBvXv31tq1azVz5kzNnTvXNc9x48bppZde0pw5cxQTE+MagS1RooRKlCjh13IBAAAAAAWn0IfZzp076+jRoxo5cqSSk5NVt25dLVy4UNHR0ZKk5ORkj3u/xsbGauHChRo4cKAmT56sKlWqaNKkSbrvvvtcNVOmTFFGRobuv/9+j2UNGzZMw4cP92u5AAAAAICCU+jDrCT17dtXffv29frc7Nmzc01r2bKlNm3a5HN+e/bsuejlAgAAAAAKTqE+ZxYAAAAAAG8IswAAAAAAyyHMAgAAAAAshzALAAAAALAcwiwAAAAAwHIIswAAAAAAyyHMAgAAAAAshzALAAAAALAcwiwAAAAAwHIIswAAAAAAyyHMAgAAAAAshzALAAAAALAcwiwAAAAAwHIIswAAAAAAyyHMAgAAAAAshzALAAAAALAcwiwAAAAAwHIIswAAAAAAyyHMAgAAAAAshzALAAAAALAcwiwAAAAAwHIIswAAAAAAyyHMAgAAAAAshzALAAAAALAcwiwAAAAAwHIIswAAAAAAyyHMAgAAAAAshzALAAAAALAcwiwAAAAAwHIIswAAAAAAyyHMAgAAAAAshzALAAAAALAcwiwAAAAAwHIIswAAAAAAyyHMAgAAAAAshzALAAAAALAcwiwAAAAAwHIIswAAAAAAyyHMAgAAAAAshzALAAAAALAcwiwAAAAAwHIIswAAAAAAyyHMAgAAAAAshzALAAAAALAcwiwAAAAAwHIIswAAAAAAyyHMAgAAAAAshzALAAAAALAcwiwAAAAAwHIIswAAAAAAyyHMAgAAAAAshzALAAAAALAcwiwAAAAAwHIIswAAAAAAyyHMAgAAAAAshzALAAAAALAcwiwAAAAAwHIIswAAAAAAyyHMAgAAAAAshzALAAAAALAcwiwAAAAAwHIIswAAAAAAyyHMAgAAAAAshzALAAAAALAcS4TZKVOmKDY2VuHh4YqLi9OqVavyrF+xYoXi4uIUHh6uGjVqaNq0aR7Pb9u2Tffdd59iYmJks9k0ceLEXPPIzMzUiy++qNjYWBUtWlQ1atTQyJEj5XA48nPVAAAAAAAXoNCH2Xnz5mnAgAEaOnSoNm/erObNm6t9+/bat2+f1/rdu3erQ4cOat68uTZv3qwXXnhB/fr102effeaqSUtLU40aNTR27FhVqlTJ63xeffVVTZs2TW+99ZZ27NihcePGafz48XrzzTcvyXoCAAAAAPwXUtANOJfXXntNPXv2VK9evSRJEydO1JIlSzR16lSNGTMmV/20adNUvXp112hr7dq1tWHDBk2YMEH33XefJOmmm27STTfdJEkaPHiw1+WuXbtWnTp10h133CFJiomJ0dy5c7Vhw4b8XkUAAAAAwHkq1GE2IyNDGzduzBU44+PjtWbNGq+vWbt2reLj4z2mtWvXTjNnzpTdbldoaKhfy27WrJmmTZumXbt26ZprrtHWrVu1evVqr4ckO6Wnpys9Pd31e2pqqiTJbrfLbrf7tdzCytl+q68HvKN/Axv9G9jo38BG/wY2+jdw0beXZ90LdZg9cuSIsrKyVLFiRY/pFStWVEpKitfXpKSkeK3PzMzUkSNHVLlyZb+WPWjQIJ04cUK1atVScHCwsrKy9Morr6hLly4+XzNmzBiNGDEi1/SlS5eqWLFifi23sEtMTCzoJuASon8DG/0b2OjfwEb/Bjb6N3BdyX2blpZ2yZdRqMOsk81m8/jdMIxc085V7216XubNm6cPP/xQc+bMUZ06dbRlyxYNGDBAVapUUbdu3by+ZsiQIUpISHD9npqaqqioKMXHxysiIsLvZRdGdrtdiYmJatu2rd+j27AO+jew0b+Bjf4NbPRvYKN/Axd96z5K9VIq1GG2XLlyCg4OzjUKe+jQoVyjr06VKlXyWh8SEqKyZcv6veznnntOgwcP1kMPPSRJuv7667V3716NGTPGZ5gNCwtTWFhYrumhoaEB8yEOpHVBbvRvYKN/Axv9G9jo38BG/wauK7lvL8d6F+qrGRcpUkRxcXG5hucTExPVpEkTr69p3LhxrvqlS5eqYcOG5/WGpqWlKSjI8+0JDg7m1jwAAAAAUAgU6pFZSUpISFDXrl3VsGFDNW7cWNOnT9e+ffvUp08fSeahvQcOHND7778vSerTp4/eeustJSQkqHfv3lq7dq1mzpypuXPnuuaZkZGh7du3u34+cOCAtmzZohIlSuiqq66SJN1555165ZVXVL16ddWpU0ebN2/Wa6+9pscff/wyvwMAAAAAgJwKfZjt3Lmzjh49qpEjRyo5OVl169bVwoULFR0dLUlKTk72uOdsbGysFi5cqIEDB2ry5MmqUqWKJk2a5LotjyQdPHhQN954o+v3CRMmaMKECWrZsqWSkpIkSW+++aZeeukl9e3bV4cOHVKVKlX05JNP6j//+c/lWXEAAAAAgE+FPsxKUt++fdW3b1+vz82ePTvXtJYtW2rTpk0+5xcTE+O6KJQvJUuW1MSJE/O8FQ8AAAAAoGAU6nNmAQAAAADwhjALAAAAALAcwiwAAAAAwHIIswAAAAAAyyHMAgAAAAAshzALAAAAALAcwiwAAAAAwHIIswAAAAAAyyHMAgAAAAAshzALAAAAALAcwiwAAAAAwHIIswAAAAAAyyHMAgAAAAAshzALAAAAALAcwiwAAAAAwHIIswAAAAAAyyHMAgAAAAAshzALAAAAALAcwiwAAAAAwHIIswAAAAAAyyHMAgAAAAAshzALAAAAALAcwiwAAAAAwHIIswAAAAAAyyHMAgAAAAAshzALAAAAALAcwiwAAAAAwHIIswAAAAAAyyHMAgAAAAAshzALAAAAALAcwiwAAAAAwHIIswAAAAAAyyHMAgAAAAAshzALAAAAALAcwiwAAAAAwHIIswAAAAAAyyHMAgAAAAAshzALAAAAALAcwiwAAAAAwHIIswAAAAAAyyHMAgAAAAAshzALAAAAALAcwiwAAAAAwHIIswAAAAAAywkp6AYAAADgImVlmQ+Hw/NhGOa/pUpJQf+MYRw/Lp0+7b3O4ZBq1JBC/tlFPHBAOnw4d43z0aCBVLSoWfvbb9Lu3d7rHA7p1lvNdkjStm3S1q2+23vXXVLFimbt5s3SypVSkybSTTdd1rcVQOFGmAUAwGoMQ0pPN3f609MVkpZmBpTgYPO5sDCpRAmzNitLOnjQd3ApVUqqXNmszcyUfvrJe53DIZUrJ9WubdY6HFJiou/gUqmSGT6cPvrId9iqWlXq2NFdO3mydPas9zZXrSr16OGuHTNGOnHCe22VKtKgQe7aoUOllBTvtRUrSq+/7q4dMED64w/v61amjPTJJ+7aPn28BzOHw+yH779313bvLq1e7b02OFjav99d+8gjCvn6a92RkaHgoKDc9WfPSqGhZm3XrtLcub4/M8eOSaVLmz8/95z0zju+aw8cMN87SRo/XnrjDd+1u3ZJV19t/vzuu2Z/+LJ5s1S/vvnzl19KL77ou7ZOHXeYTUqSEhKk0aMJswA8EGYBoLBx7lwHBUk2mzktPV2y232PYpQv7x51OXpUSk1116Snq8Sff0rbt5s7y9de694B3rfPvXPvLZTcfLNUrJhZu2uX9OuvvsNL27ZSZKRZ+9NP0qZNvtt7773uALVxo/Tdd75rH31Uuuoqs3bdOunTT30Hs9693TvLP/wgvf2279qnn5ZatHDXjhrlfb0cDunf/5buvNPdhmee8V37/PNSt27udXvgAd+1gwebO+mS9PPPZvjzVTtkiLkzL5n9cO21kqRQSXfk/Az16+cOIH/9JVWv7vvz1quXNGOG+fPp01JcnO/aLl2kOXPMn7OypNtv9117113S/Pnu33v0MD/D3tx2m2eYHTrUDKjeNG7sGWbfessM697ccINnmP30U/Nz7E3Nmp5hdsUKacsW77XOz67TL7+YnyFvIiI8fz94UPr9d++1wcGev6elyZaa6ntnzTDcPwed48wxh8P9c0iI+TfA+TcmKMjzkX2+pUqZwdZbXVCQZ5srVzbfc291QUHuEVxJio2V2rTxXesM3pL5WX/oIfcXKQDwD8IsUJCy71hn3ylwOKRTp3zv3Bct6v6PPjNT2rvX9w57ZKQUFWXWZmVJ69fnqrFlZKjc1q1mXYMG7jZ8843v4FKlijsISNLs2WZbfI263Huvu3biROnMGd+jLk8+6a59+WVzRMHXqMtLL7lrBw3yHIHK3vYKFaQpU9y1zzxjBgJv6xYZ6bkT3quXOaLgrbZYMTOwOHXtau4Ee6u12czD9ZweeshcTs46p7NnzRE2SXr8cXeI8OboUXO0SJJeeEGaPt31VKikNtlr9++XqlVz90X2Hfic/vc/V2jS++9Lr7ziu3bTJneY/eYbsx2+1KvnDgSrV5sB0JfGjd1h9qefzJEiX9q0cYfZPXvMz6UvznAqSYcOmW32pUsX988nT5qB1pejR90/Z2SYh136cvq0+2fDMLd7Xy40uAQFmZ8jZ0jIGUqcX1ZI5t+gatV8B5fsIS4oyHyvfYWR667zbFPbtubfIG+1N9zgWfvgg+bfCG+1NWp41vbubX554622UiXP2oEDzb8n5wpPkvm3xVmb8/3IHsokczTSV63ziyOn11832+vtPXZ+eeU0ebLso0craeVKtWrdWqHOfnS+Nvu8337bHNHOOT9voXPqVPPhjxEjzIc/nnnGfPjj4YfNhz86dDAfAJADYfZyMYzcoSAszP0f1+nT7kPGfO20O/8jOnTIc+c+53zr1pWKFDFrd+82DxfyNerStKn7ULQdO6SdO73uhNsyMhSa/T/CrVvNnTlfIwgPPODeWV6/Xlq61Pe6de8uXXONWfvjj+ZhUr6CWZ8+7lGDtWvNb+R91fbvb56fI5nfmP/nP77b+9xz0j33mLXr1plhKq+RlJ49zdpNm8zRB1+1L7zg3kn/5Rez7d5Ci2QGsbFj3f3m3Hn35umnpTffNH8+ciTv2scfl2bONH9OSzODQQ4hkppKcvzyi/vQOcMw182XO+/0DLN9+pifYW9at/YMsyNHmp9hb26+2TPMTp8u/fmn99q6dT3D7Pz55mfYm9hYz9/XrDH7zxvnoW1Ou3b5rnVuP06HD3seJphdzh1Vu90MrL74G15sNs/PU1iYVLy4a2fWCAqSPStLoWFhsuWcT5kyUkyM7/CSfWe5WjWpYUPf4aV4cXdtzZpS+/a+a8uWddfWri099pjvWuffEkm6/npzlNRXba1a7tp69cxtyldt9sMV69c3D5H0NVKVfbSyXj1pwQLftdm3x7p1zb8/vmorVHDXXnutOWLnra02m+f7W6OGK8DZs7K0eOlS3d6+vWfYcapUKe/PWXYlSvj+/OYUHGx+yeOvvL4syCnblzHnNHy4/7V9+vhfm/1v1rk0b+5/bZ06/tdWqSKVL6+0XbvM7TRnMM4u++cDAK4QhNnLwXmxg5zS0tzf7v7rX9IHH/iex+HD5rlKkjRsmDRtmu/avXvdh5S99Zb02mu+a7dvdx+2M3euOQrmRYikYhMmuCcsXmyGOl/i4tw7oD/8kPd5Mc2bu8Pstm15n5vTrp17p3LfvrxHqpzhVDIDX2Ki79qUFPfPp0/7PrRM8gxhdrv5ZYEvOXcgMzJ812YPLjlDT/bpOXdUg4OlkiV97yxnP8QtONjcCc5RZ9hsSj19WiWcI7iS+VyjRr6DQM6RlDvuMN8Pb7U5d94eecT8/HurjYnxrP3Xv3yPumQPApL5pcTx495rcx7qN2KE75GU8HDP2nHjzPl6e39DcvwZnTTJHLnzZ9Rl6lRzlMZXrXNUVjLPb5s+PXeN85GzDZMmuX7NtNu1aOFCdejQQaE5d4ZffDHv7TO7Pn38DwMPPmg+/BEfbz78cfPN5sMftWv7f1hi9eqeh67mpVw5z0Ni81KypP/tDQvLPeroS1CQOW9JstvlCA01v8TM+XkEACCA8b9eQcorvOTcuc0+6lK8uHkon6/wkn1eFSqYF2bwFUicI7iSuTPXpInXOofNpqzsh1VdfbXUqZPv+ZYv766tU8c8TNNXbXS0u7ZePfO8MF+12UNR/fpmUPdVm30E8sYbpQ8/9P2e1avn2YYlS3zXZg9bdeuaI3a+arOPPl17rTni4WsELHuAiokxg3BeQcipfHkz7PmjWDGv52pl2u1K+ifsuMbfbTZzpNxfn33mf61zVNkfeR2qmpNzxNwf/oYRSbrlFv9rnV/M+CNnGM9L9mALAAAAwuxl8euv7kviZw8m2cPhzJmeh7jlZcIE8+GPQYM8L36Rl169zIcXWXa7Ti1c6J5w773+H4LVurX58EdcXN4XH8nu2mvd5/KdS9Wq5migP8qU8X+UqHhxMyj7IzTU83DJvAQFEV4AAACAPBBmL4cKFXIf4pgTh4YBAAAAgN+CCroBAAAAAACcL8IsAAAAAMByCLMAAAAAAMshzAIAAAAALIcwCwAAAACwHMIsAAAAAMByCLMAAAAAAMshzAIAAAAALIcwCwAAAACwHMIsAAAAAMByCLMAAAAAAMuxRJidMmWKYmNjFR4erri4OK1atSrP+hUrViguLk7h4eGqUaOGpk2b5vH8tm3bdN999ykmJkY2m00TJ070Op8DBw7o0UcfVdmyZVWsWDHVr19fGzduzK/VAgAAAABcoEIfZufNm6cBAwZo6NCh2rx5s5o3b6727dtr3759Xut3796tDh06qHnz5tq8ebNeeOEF9evXT5999pmrJi0tTTVq1NDYsWNVqVIlr/M5duyYmjZtqtDQUC1atEjbt2/X//3f/6l06dKXYjUBAAAAAOchpKAbcC6vvfaaevbsqV69ekmSJk6cqCVLlmjq1KkaM2ZMrvpp06apevXqrtHW2rVra8OGDZowYYLuu+8+SdJNN92km266SZI0ePBgr8t99dVXFRUVpVmzZrmmxcTE5OOaAQAAAAAuVKEOsxkZGdq4cWOuwBkfH681a9Z4fc3atWsVHx/vMa1du3aaOXOm7Ha7QkND/Vr2V199pXbt2umBBx7QihUrVLVqVfXt21e9e/f2+Zr09HSlp6e7fk9NTZUk2e122e12v5ZbWDnbb/X1gHf0b2CjfwMb/RvY6N/ARv8GLvr28qx7oQ6zR44cUVZWlipWrOgxvWLFikpJSfH6mpSUFK/1mZmZOnLkiCpXruzXsv/44w9NnTpVCQkJeuGFF7Ru3Tr169dPYWFheuyxx7y+ZsyYMRoxYkSu6UuXLlWxYsX8Wm5hl5iYWNBNwCVE/wY2+jew0b+Bjf4NbPRv4LqS+zYtLe2SL6NQh1knm83m8bthGLmmnave2/S8OBwONWzYUKNHj5Yk3Xjjjdq2bZumTp3qM8wOGTJECQkJrt9TU1MVFRWl+Ph4RURE+L3swshutysxMVFt27b1e3Qb1kH/Bjb6N7DRv4GN/g1s9G/gom/dR6leSoU6zJYrV07BwcG5RmEPHTqUa/TVqVKlSl7rQ0JCVLZsWb+XXblyZV133XUe02rXru1xIamcwsLCFBYWlmt6aGhowHyIA2ldkBv9G9jo38BG/wY2+jew0b+B60ru28ux3oX6asZFihRRXFxcruH5xMRENWnSxOtrGjdunKt+6dKlatiw4Xm9oU2bNtXOnTs9pu3atUvR0dF+zwMAAAAAcGkU6jArSQkJCXrnnXf07rvvaseOHRo4cKD27dunPn36SDIP7c1+2G+fPn20d+9eJSQkaMeOHXr33Xc1c+ZMPfvss66ajIwMbdmyRVu2bFFGRoYOHDigLVu26LfffnPVDBw4UD/88INGjx6t3377TXPmzNH06dP11FNPXb6VBwAAAAB4VagPM5akzp076+jRoxo5cqSSk5NVt25dLVy40DVCmpyc7HHP2djYWC1cuFADBw7U5MmTVaVKFU2aNMl1Wx5JOnjwoG688UbX7xMmTNCECRPUsmVLJSUlSTJv3/PFF19oyJAhGjlypGJjYzVx4kQ98sgjl2fFAQAAAAA+FfowK0l9+/ZV3759vT43e/bsXNNatmypTZs2+ZxfTEyM66JQeenYsaM6duzodzsBAAAAAJdHoT/MGAAAAACAnAizAAAAAADLIcwCAAAAACyHMAsAAAAAsBzCLAAAAADAcgizAAAAAADLIcwCAAAAACyHMAsAAAAAsJyQgm5AIDMMQ5KUmppawC25eHa7XWlpaUpNTVVoaGhBNwf5jP4NbPRvYKN/Axv9G9jo38BF37ozkDMTXQqE2Uvo5MmTkqSoqKgCbgkAAAAAXH4nT55UqVKlLsm8bcaljMpXOIfDoYMHD6pkyZKy2WwF3ZyLkpqaqqioKO3fv18REREF3RzkM/o3sNG/gY3+DWz0b2CjfwMXfWuOyJ48eVJVqlRRUNClObuVkdlLKCgoSNWqVSvoZuSriIiIK3aDvBLQv4GN/g1s9G9go38DG/0buK70vr1UI7JOXAAKAAAAAGA5hFkAAAAAgOUQZuGXsLAwDRs2TGFhYQXdFFwC9G9go38DG/0b2OjfwEb/Bi769vLgAlAAAAAAAMthZBYAAAAAYDmEWQAAAACA5RBmAQAAAACWQ5gFAAAAAFgOYTZATZkyRbGxsQoPD1dcXJxWrVrlszYpKUk2my3X43//+5/X+o8//lg2m0133323x/SYmBiv83nqqadcNd27d8/1/C233JIv63wlKYj+zczM1IsvvqjY2FgVLVpUNWrU0MiRI+VwOFw1hmFo+PDhqlKliooWLapWrVpp27Zt+bLOV5LC2r9svxevIPr25MmTGjBggKKjo1W0aFE1adJE69ev96hh280fhbV/2XbzR3737+zZs73WnD179ryWy/abPwpr/7L9noOBgPPxxx8boaGhxowZM4zt27cb/fv3N4oXL27s3bvXa/3y5csNScbOnTuN5ORk1yMzMzNX7Z49e4yqVasazZs3Nzp16uTx3KFDhzxen5iYaEgyli9f7qrp1q2bcfvtt3vUHT16ND9XP+AVVP+OGjXKKFu2rPH1118bu3fvNv773/8aJUqUMCZOnOiqGTt2rFGyZEnjs88+M37++Wejc+fORuXKlY3U1NR8fQ8CWWHuX7bfi1NQffvggw8a1113nbFixQrj119/NYYNG2ZEREQYf/75p6uGbffiFeb+Zdu9eJeif2fNmmVERER4PJ+cnHzey2X7vXiFuX/ZfvNGmA1AjRo1Mvr06eMxrVatWsbgwYO91js3yGPHjuU538zMTKNp06bGO++8Y3Tr1i3Xf6g59e/f36hZs6bhcDhc0/x5HfJWUP17xx13GI8//rjHtHvvvdd49NFHDcMwDIfDYVSqVMkYO3as6/mzZ88apUqVMqZNm+bn2qGw9q9hsP1erILo27S0NCM4ONj4+uuvPV5Tr149Y+jQoYZhsO3ml8Lav4bBtpsfLkX/zpo1yyhVqtRFLZftN38U1v41DLbfc+Ew4wCTkZGhjRs3Kj4+3mN6fHy81qxZk+drb7zxRlWuXFlt2rTR8uXLcz0/cuRIlS9fXj179vSrHR9++KEef/xx2Ww2j+eSkpJUoUIFXXPNNerdu7cOHTrkx5pBKtj+bdasmZYtW6Zdu3ZJkrZu3arVq1erQ4cOkqTdu3crJSXFo21hYWFq2bLlOdsGU2HuXye23wtTUH2bmZmprKwshYeHe0wvWrSoVq9eLYltNz8U5v51Ytu9cJeyf0+dOqXo6GhVq1ZNHTt21ObNm89ruWy/F68w968T269vIQXdAOSvI0eOKCsrSxUrVvSYXrFiRaWkpHh9TeXKlTV9+nTFxcUpPT1dH3zwgdq0aaOkpCS1aNFCkvT9999r5syZ2rJli1/t+PLLL3X8+HF1797dY3r79u31wAMPKDo6Wrt379ZLL72k1q1ba+PGjQoLCzvv9b3SFGT/Dho0SCdOnFCtWrUUHBysrKwsvfLKK+rSpYskuZbvrW179+690FW+ohTm/pXYfi9GQfVtyZIl1bhxY7388suqXbu2KlasqLlz5+rHH3/U1VdfLYltNz8U5v6V2HYv1qXq31q1amn27Nm6/vrrlZqaqjfeeENNmzbV1q1bdfXVV/u1XLbfi1eY+1di+z0XwmyAyjkaahhGrmlO1157ra699lrX740bN9b+/fs1YcIEtWjRQidPntSjjz6qGTNmqFy5cn4tf+bMmWrfvr2qVKniMb1z586un+vWrauGDRsqOjpa33zzje69915/V++KVxD9O2/ePH344YeaM2eO6tSpoy1btmjAgAGqUqWKunXrdkFtg3eFtX/Zfi9eQfTtBx98oMcff1xVq1ZVcHCwGjRooIcfflibNm264LbBu8Lav2y7+SM/+1eSbrnlFo8L+TRt2lQNGjTQm2++qUmTJp3Xctl+L15h7V+237wRZgNMuXLlFBwcnOubpEOHDuX65icvt9xyiz788ENJ0u+//649e/bozjvvdD3vvMJpSEiIdu7cqZo1a7qe27t3r7799lt9/vnn51xO5cqVFR0drV9//dXvtl3JCrJ/n3vuOQ0ePFgPPfSQJOn666/X3r17NWbMGHXr1k2VKlWSZH5LXLly5Qtu25WsMPevN2y//ivIvq1Zs6ZWrFih06dPKzU1VZUrV1bnzp0VGxsrSWy7+aAw9683bLvn51L0rzdBQUG66aabXP3iz3LZfi9eYe5fb9h+PXHObIApUqSI4uLilJiY6DE9MTFRTZo08Xs+mzdvdv1RrFWrln7++Wdt2bLF9bjrrrt06623asuWLYqKivJ47axZs1ShQgXdcccd51zO0aNHtX//fo8/wPCtIPs3LS1NQUGefzKCg4NdO1exsbGqVKmSR9syMjK0YsWK82rblaww9683bL/+Kwx/m4sXL67KlSvr2LFjWrJkiTp16iSJbTc/FOb+9YZt9/xciv71xjAMbdmyxVXjz3LZfi9eYe5fb9h+cyiIq07h0nJe5nvmzJnG9u3bjQEDBhjFixc39uzZYxiGYQwePNjo2rWrq/711183vvjiC2PXrl3GL7/8YgwePNiQZHz22Wc+l+HrympZWVlG9erVjUGDBuV67uTJk8a///1vY82aNcbu3buN5cuXG40bNzaqVq3K5ePPQ0H1b7du3YyqVau6bt3y+eefG+XKlTOef/55V83YsWONUqVKGZ9//rnx888/G126dOH2AOepsPYv2+/FK6i+Xbx4sbFo0SLjjz/+MJYuXWrUq1fPaNSokZGRkeGqYdu9eIW1f9l288el6N/hw4cbixcvNn7//Xdj8+bNRo8ePYyQkBDjxx9/9Hu5hsH2mx8Ka/+y/Z4bYTZATZ482YiOjjaKFCliNGjQwFixYoXruW7duhktW7Z0/f7qq68aNWvWNMLDw43IyEijWbNmxjfffJPn/H2F2SVLlrjuu5VTWlqaER8fb5QvX94IDQ01qlevbnTr1s3Yt2/fBa/nlaog+jc1NdXo37+/Ub16dSM8PNyoUaOGMXToUCM9Pd1V43A4jGHDhhmVKlUywsLCjBYtWhg///xzvqzzlaQw9i/bb/4oiL6dN2+eUaNGDaNIkSJGpUqVjKeeeso4fvy4Rw3bbv4ojP3Ltpt/8rt/BwwYYFSvXt0oUqSIUb58eSM+Pt5Ys2bNeS3XMNh+80th7F+233OzGYZhFNy4MAAAAAAA549zZgEAAAAAlkOYBQAAAABYDmEWAAAAAGA5hFkAAAAAgOUQZgEAAAAAlkOYBQAAAABYDmEWAAAAAGA5hFkAAAAAgOUQZgEAAAAAlkOYBQAAAABYDmEWAAAAAGA5hFkAAAAAgOUQZgEAAAAAlkOYBQAAAABYDmEWAAAAAGA5hFkAAAAAgOUQZgEAAAAAlvP/Cm5Mym1oIfYAAAAASUVORK5CYII=;clipPath=inset(0% 26% 0% 0% round 5%);" vertex="1" parent="1">
          <mxGeometry x="430" y="190" width="594.33" height="340" as="geometry" />
        </mxCell>
        <mxCell id="AK2-ss-QhYlCPNd1e7_Q-8" value="" style="rounded=1;whiteSpace=wrap;html=1;fillColor=none;arcSize=9;" parent="1" vertex="1">
          <mxGeometry x="430" y="190" width="594.33" height="330" as="geometry" />
        </mxCell>
      </root>
    </mxGraphModel>
  </diagram>
</mxfile>
